<svg width="69" height="68" viewBox="0 0 69 68" fill="none" xmlns="http://www.w3.org/2000/svg">
<path d="M68.0649 34.1141C68.0649 52.8171 52.902 67.9821 34.2 67.9821C15.494 67.9821 0.334961 52.8171 0.334961 34.1141C0.334961 15.4101 15.494 0.24707 34.2 0.24707C52.902 0.24707 68.0649 15.4101 68.0649 34.1141Z" fill="url(#paint0_linear_2082_982)"/>
<path d="M37.9391 14.4758C37.6441 14.4758 37.4041 14.2358 37.4041 13.9388C37.4041 10.6868 34.7591 8.04178 31.5061 8.04178C28.2561 8.04178 25.6131 10.6878 25.6131 13.9388C25.6131 14.2358 25.3731 14.4758 25.0751 14.4758C24.7771 14.4758 24.5371 14.2358 24.5371 13.9388C24.5371 10.0958 27.6661 6.96777 31.5061 6.96777C35.3501 6.96777 38.4751 10.0958 38.4751 13.9388C38.4751 14.2348 38.2341 14.4758 37.9391 14.4758Z" fill="white"/>
<path d="M25.0751 54.0715C24.7771 54.0715 24.5371 53.8315 24.5371 53.5345V26.8065C24.5371 26.5095 24.7771 26.2695 25.0751 26.2695C25.3731 26.2695 25.6131 26.5095 25.6131 26.8065V53.5345C25.6131 53.8315 25.3731 54.0715 25.0751 54.0715Z" fill="white"/>
<path d="M25.0751 22.6754C24.7771 22.6754 24.5371 22.4354 24.5371 22.1384V13.9384C24.5371 13.6414 24.7771 13.4014 25.0751 13.4014C25.3731 13.4014 25.6131 13.6414 25.6131 13.9384V22.1384C25.6131 22.4354 25.3731 22.6754 25.0751 22.6754Z" fill="white"/>
<path d="M37.9384 54.0714C37.6404 54.0714 37.4004 53.8314 37.4004 53.5344V13.9374C37.4004 13.6404 37.6404 13.4004 37.9384 13.4004C38.2334 13.4004 38.4734 13.6404 38.4734 13.9374V53.5344C38.4744 53.8314 38.2334 54.0714 37.9384 54.0714Z" fill="white"/>
<path d="M31.5054 28.7472C29.1494 28.7472 27.2344 26.8302 27.2344 24.4732C27.2344 22.1172 29.1494 20.2002 31.5054 20.2002C33.8644 20.2002 35.7804 22.1172 35.7804 24.4732C35.7804 26.8302 33.8644 28.7472 31.5054 28.7472ZM31.5054 21.2712C29.7414 21.2712 28.3074 22.7082 28.3074 24.4732C28.3074 26.2402 29.7424 27.6762 31.5054 27.6762C33.2724 27.6762 34.7074 26.2392 34.7074 24.4732C34.7074 22.7072 33.2714 21.2712 31.5054 21.2712Z" fill="white"/>
<path d="M31.5054 41.1876C29.1494 41.1876 27.2344 39.2696 27.2344 36.9136C27.2344 34.5576 29.1494 32.6406 31.5054 32.6406C33.8644 32.6406 35.7804 34.5576 35.7804 36.9136C35.7804 39.2696 33.8644 41.1876 31.5054 41.1876ZM31.5054 33.7106C29.7414 33.7106 28.3074 35.1476 28.3074 36.9126C28.3074 38.6776 29.7424 40.1136 31.5054 40.1136C33.2724 40.1136 34.7074 38.6766 34.7074 36.9126C34.7074 35.1466 33.2714 33.7106 31.5054 33.7106Z" fill="white"/>
<path d="M31.5059 16.0236C30.3569 16.0236 29.4199 15.0876 29.4199 13.9376C29.4199 12.7856 30.3569 11.8506 31.5059 11.8506C32.6579 11.8506 33.5949 12.7856 33.5949 13.9376C33.5949 15.0886 32.6579 16.0236 31.5059 16.0236ZM31.5059 12.9246C30.9489 12.9246 30.4929 13.3786 30.4929 13.9386C30.4929 14.4966 30.9489 14.9516 31.5059 14.9516C32.0679 14.9516 32.5219 14.4966 32.5219 13.9386C32.5209 13.3786 32.0679 12.9246 31.5059 12.9246Z" fill="white"/>
<path d="M31.5059 55.6222C30.3569 55.6222 29.4199 54.6872 29.4199 53.5352C29.4199 52.3852 30.3569 51.4492 31.5059 51.4492C32.6579 51.4492 33.5949 52.3852 33.5949 53.5352C33.5949 54.6882 32.6579 55.6222 31.5059 55.6222ZM31.5059 52.5222C30.9489 52.5222 30.4929 52.9772 30.4929 53.5352C30.4929 54.0952 30.9489 54.5492 31.5059 54.5492C32.0679 54.5492 32.5219 54.0952 32.5219 53.5352C32.5209 52.9782 32.0679 52.5222 31.5059 52.5222Z" fill="white"/>
<path d="M31.5061 60.506C27.6661 60.506 24.5371 57.378 24.5371 53.535C24.5371 53.238 24.7771 53 25.0751 53C25.3731 53 25.6131 53.238 25.6131 53.535C25.6131 56.787 28.2561 59.432 31.5061 59.432C34.7601 59.432 37.4041 56.786 37.4041 53.535C37.4041 53.238 37.6441 53 37.9391 53C38.2341 53 38.4741 53.238 38.4741 53.535C38.4751 57.378 35.3501 60.506 31.5061 60.506Z" fill="white"/>
<path d="M28.5898 27.3435H11.1218C9.90883 27.3435 8.92383 26.3575 8.92383 25.1455V23.8005C8.92383 22.5885 9.90883 21.6025 11.1218 21.6025H28.5898C28.8848 21.6025 29.1248 21.8425 29.1248 22.1385C29.1248 22.4355 28.8848 22.6755 28.5898 22.6755H11.1218C10.5018 22.6755 9.99683 23.1795 9.99683 23.8005V25.1455C9.99683 25.7655 10.5018 26.2705 11.1218 26.2705H28.5898C28.8848 26.2705 29.1248 26.5106 29.1248 26.8076C29.1248 27.1036 28.8848 27.3435 28.5898 27.3435Z" fill="white"/>
<path d="M31.4081 47.7991C29.8481 47.7991 28.5781 46.5281 28.5781 44.9671V39.7841C28.5781 39.4881 28.8181 39.248 29.1131 39.248C29.4081 39.248 29.6511 39.4881 29.6511 39.7841V44.9671C29.6511 45.9371 30.4381 46.7251 31.4081 46.7251C32.4881 46.7251 33.3631 45.8491 33.3631 44.7711V39.7851C33.3631 39.4891 33.6031 39.2491 33.9021 39.2491C34.1971 39.2491 34.4371 39.4891 34.4371 39.7851V44.7711C34.4381 46.4401 33.0781 47.7991 31.4081 47.7991Z" fill="white"/>
<path d="M31.5057 39.2629C31.2107 39.2629 30.9707 39.0229 30.9707 38.7279V35.5819C30.9707 35.2849 31.2107 35.0439 31.5057 35.0439C31.8037 35.0439 32.0437 35.2849 32.0437 35.5819V38.7279C32.0437 39.0219 31.8037 39.2629 31.5057 39.2629Z" fill="white"/>
<path d="M44.1395 60.5058C43.8445 60.5058 43.6045 60.2658 43.6045 59.9688V7.50479C43.6045 7.20779 43.8445 6.96777 44.1395 6.96777C44.4375 6.96777 44.6775 7.20779 44.6775 7.50479V59.9688C44.6775 60.2658 44.4375 60.5058 44.1395 60.5058Z" fill="white"/>
<path d="M55.3675 26.9322H44.1395C43.8445 26.9322 43.6045 26.6932 43.6045 26.3962C43.6045 26.0992 43.8445 25.8582 44.1395 25.8582H54.8325V24.0262H44.1395C43.8445 24.0262 43.6045 23.7842 43.6045 23.4882C43.6045 23.1912 43.8445 22.9512 44.1395 22.9512H55.3685C55.6635 22.9512 55.9035 23.1912 55.9035 23.4882V26.3962C55.9025 26.6922 55.6625 26.9322 55.3675 26.9322Z" fill="white"/>
<path d="M55.3675 33.3511H44.1395C43.8445 33.3511 43.6045 33.1131 43.6045 32.8161C43.6045 32.5201 43.8445 32.2781 44.1395 32.2781H54.8325V30.4451H44.1395C43.8445 30.4451 43.6045 30.2051 43.6045 29.9081C43.6045 29.6121 43.8445 29.3721 44.1395 29.3721H55.3685C55.6635 29.3721 55.9035 29.6121 55.9035 29.9081V32.8161C55.9025 33.1121 55.6625 33.3511 55.3675 33.3511Z" fill="white"/>
<path d="M55.3675 39.771H44.1395C43.8445 39.771 43.6045 39.531 43.6045 39.236C43.6045 38.938 43.8445 38.698 44.1395 38.698H54.8325V36.865H44.1395C43.8445 36.865 43.6045 36.623 43.6045 36.328C43.6045 36.032 43.8445 35.792 44.1395 35.792H55.3685C55.6635 35.792 55.9035 36.032 55.9035 36.328V39.236C55.9025 39.53 55.6625 39.771 55.3675 39.771Z" fill="white"/>
<path d="M55.3675 46.1899H44.1395C43.8445 46.1899 43.6045 45.9499 43.6045 45.6539C43.6045 45.3569 43.8445 45.1169 44.1395 45.1169H54.8325V43.282H44.1395C43.8445 43.282 43.6045 43.0419 43.6045 42.7469C43.6045 42.4509 43.8445 42.2109 44.1395 42.2109H55.3685C55.6635 42.2109 55.9035 42.4509 55.9035 42.7469V45.6539C55.9025 45.9499 55.6625 46.1899 55.3675 46.1899Z" fill="white"/>
<path d="M46.5285 53.4062H44.1385C43.8435 53.4062 43.6035 53.1643 43.6035 52.8683C43.6035 52.5713 43.8435 52.3333 44.1385 52.3333H46.2575L47.8505 50.1873H44.1385C43.8435 50.1873 43.6035 49.9462 43.6035 49.6492C43.6035 49.3522 43.8435 49.1143 44.1385 49.1143H48.9145C49.1185 49.1143 49.3035 49.2262 49.3945 49.4092C49.4855 49.5902 49.4675 49.8072 49.3455 49.9692L46.9585 53.1892C46.8565 53.3252 46.6985 53.4062 46.5285 53.4062Z" fill="white"/>
<defs>
<linearGradient id="paint0_linear_2082_982" x1="10.2539" y1="58.0626" x2="58.148" y2="10.1684" gradientUnits="userSpaceOnUse">
<stop stop-color="#63B7B1"/>
<stop offset="0.0978" stop-color="#59AFA9"/>
<stop offset="0.4375" stop-color="#3C9A92"/>
<stop offset="0.7479" stop-color="#288E85"/>
<stop offset="1" stop-color="#1F8A81"/>
</linearGradient>
</defs>
</svg>
