<svg width="67" height="67" viewBox="0 0 67 67" fill="none" xmlns="http://www.w3.org/2000/svg">
<path d="M33.1671 66.1184C51.3947 66.1184 66.1711 51.342 66.1711 33.1144C66.1711 14.8868 51.3947 0.110352 33.1671 0.110352C14.9395 0.110352 0.163086 14.8868 0.163086 33.1144C0.163086 51.342 14.9395 66.1184 33.1671 66.1184Z" fill="url(#paint0_linear_2082_901)"/>
<path d="M47.3538 41.7903H27.9428C27.5608 41.7903 27.2498 41.4793 27.2498 41.1023C27.2498 40.7183 27.5618 40.4093 27.9428 40.4093H47.3538C47.8018 40.4093 48.1658 40.0463 48.1658 39.5973V19.5093C48.1658 19.0643 47.8028 18.6993 47.3538 18.6993H23.6998C23.2528 18.6993 22.8898 19.0633 22.8898 19.5093V26.4573C22.8898 26.8403 22.5788 27.1463 22.1968 27.1463C21.8188 27.1463 21.5098 26.8393 21.5098 26.4573V19.5093C21.5098 18.3023 22.4918 17.3193 23.6998 17.3193H47.3538C48.5638 17.3193 49.5488 18.3023 49.5488 19.5093V39.5973C49.5488 40.8073 48.5638 41.7903 47.3538 41.7903Z" fill="white"/>
<path d="M35.525 38.7863C30.435 38.7863 26.293 34.6443 26.293 29.5543C26.293 24.4643 30.436 20.3223 35.525 20.3223C40.616 20.3223 44.757 24.4653 44.757 29.5543C44.758 34.6453 40.617 38.7863 35.525 38.7863ZM35.525 21.7033C31.197 21.7033 27.676 25.2253 27.676 29.5543C27.676 33.8833 31.197 37.4063 35.525 37.4063C39.856 37.4063 43.377 33.8843 43.377 29.5543C43.377 25.2263 39.856 21.7033 35.525 21.7033Z" fill="white"/>
<path d="M32.0176 31.8057C30.7756 31.8057 29.7666 30.7967 29.7666 29.5547C29.7666 28.3137 30.7756 27.3047 32.0176 27.3047C33.2586 27.3047 34.2676 28.3137 34.2676 29.5547C34.2676 30.7967 33.2576 31.8057 32.0176 31.8057ZM32.0176 28.6847C31.5376 28.6847 31.1466 29.0757 31.1466 29.5547C31.1466 30.0347 31.5376 30.4257 32.0176 30.4257C32.4966 30.4257 32.8876 30.0347 32.8876 29.5547C32.8866 29.0747 32.4966 28.6847 32.0176 28.6847Z" fill="white"/>
<path d="M39.0392 31.8057C37.7972 31.8057 36.7852 30.7967 36.7852 29.5547C36.7852 28.3137 37.7972 27.3047 39.0392 27.3047C40.2802 27.3047 41.2892 28.3137 41.2892 29.5547C41.2892 30.7967 40.2792 31.8057 39.0392 31.8057ZM39.0392 28.6847C38.5592 28.6847 38.1682 29.0757 38.1682 29.5547C38.1682 30.0347 38.5592 30.4257 39.0392 30.4257C39.5182 30.4257 39.9091 30.0347 39.9091 29.5547C39.9081 29.0747 39.5182 28.6847 39.0392 28.6847Z" fill="white"/>
<path d="M21.2973 44.1192H17.6153C14.8573 44.1192 12.6123 41.8742 12.6123 39.1162V34.0542C12.6123 33.6752 12.9223 33.3643 13.3043 33.3643H25.6123C25.9903 33.3643 26.2993 33.6762 26.2993 34.0542V39.1162C26.2993 41.8742 24.0553 44.1192 21.2973 44.1192ZM13.9943 34.7473V39.1162C13.9943 41.1122 15.6193 42.7372 17.6153 42.7372H21.2973C23.2933 42.7372 24.9183 41.1122 24.9183 39.1162V34.7473H13.9943Z" fill="white"/>
<path d="M17.2147 34.4693C16.8327 34.4693 16.5217 34.1613 16.5217 33.7793V29.9943C16.5217 29.6943 16.2797 29.4493 15.9777 29.4493C15.6777 29.4493 15.4337 29.6943 15.4337 29.9943V33.7793C15.4337 34.1623 15.1267 34.4693 14.7437 34.4693C14.3627 34.4693 14.0537 34.1613 14.0537 33.7793V29.9943C14.0537 28.9323 14.9167 28.0693 15.9787 28.0693C17.0397 28.0693 17.9027 28.9323 17.9027 29.9943V33.7793C17.9017 34.1613 17.5947 34.4693 17.2147 34.4693Z" fill="white"/>
<path d="M24.1708 34.4693C23.7878 34.4693 23.4778 34.1613 23.4778 33.7793V29.9943C23.4778 29.6943 23.2358 29.4493 22.9338 29.4493C22.6378 29.4493 22.3898 29.6943 22.3898 29.9943V33.7793C22.3898 34.1623 22.0808 34.4693 21.7028 34.4693C21.3168 34.4693 21.0098 34.1613 21.0098 33.7793V29.9943C21.0098 28.9323 21.8738 28.0693 22.9348 28.0693C23.9988 28.0693 24.8628 28.9323 24.8628 29.9943V33.7793C24.8618 34.1613 24.5498 34.4693 24.1708 34.4693Z" fill="white"/>
<path d="M26.4461 53.8067C22.0861 53.8067 18.5391 50.2607 18.5391 45.8987V43.4937C18.5391 43.1127 18.8461 42.8047 19.2261 42.8047C19.6111 42.8047 19.9191 43.1137 19.9191 43.4937V45.8987C19.9191 49.4997 22.8441 52.4267 26.4451 52.4267C30.0421 52.4267 32.9731 49.4987 32.9731 45.8987C32.9731 45.5177 33.2801 45.2087 33.6611 45.2087C34.0451 45.2087 34.3541 45.5187 34.3541 45.8987C34.3541 50.2607 30.8081 53.8067 26.4461 53.8067Z" fill="white"/>
<defs>
<linearGradient id="paint0_linear_2082_901" x1="9.82919" y1="56.4525" x2="56.5046" y2="9.77717" gradientUnits="userSpaceOnUse">
<stop stop-color="#63B7B1"/>
<stop offset="0.0978" stop-color="#59AFA9"/>
<stop offset="0.4375" stop-color="#3C9A92"/>
<stop offset="0.7479" stop-color="#288E85"/>
<stop offset="1" stop-color="#1F8A81"/>
</linearGradient>
</defs>
</svg>
