<svg width="68" height="68" viewBox="0 0 68 68" fill="none" xmlns="http://www.w3.org/2000/svg">
<path d="M34.0525 67.979C52.7556 67.979 67.9175 52.8172 67.9175 34.114C67.9175 15.4109 52.7556 0.249023 34.0525 0.249023C15.3494 0.249023 0.1875 15.4109 0.1875 34.114C0.1875 52.8172 15.3494 67.979 34.0525 67.979Z" fill="url(#paint0_linear_2082_1004)"/>
<path d="M14.8851 31.7994H7.78809C7.46309 31.7994 7.20508 31.5384 7.20508 31.2154V29.2314C7.20508 28.9094 7.46309 28.6484 7.78809 28.6484H15.67C15.864 28.6484 16.0431 28.7444 16.1531 28.9034C16.2621 29.0644 16.2831 29.2654 16.2141 29.4474L15.4261 31.4314C15.3381 31.6544 15.1221 31.7994 14.8851 31.7994ZM8.37207 30.6314H14.4861L14.808 29.8144H8.37103V30.6314H8.37207Z" fill="white"/>
<path d="M7.07056 33.8067C6.35256 33.8067 5.76855 33.2197 5.76855 32.4987V29.1127C5.76855 28.3927 6.35256 27.8057 7.07056 27.8057C7.78756 27.8057 8.37158 28.3927 8.37158 29.1127V32.4987C8.37158 33.2197 7.78756 33.8067 7.07056 33.8067ZM7.07056 28.9757C7.00056 28.9757 6.93658 29.0387 6.93658 29.1137V32.4997C6.93658 32.6487 7.20459 32.6487 7.20459 32.4997V29.1137C7.20459 29.0387 7.14056 28.9757 7.07056 28.9757Z" fill="white"/>
<path d="M23.8962 47.951C23.4132 47.951 22.8773 47.6891 22.4633 47.2191C20.8093 45.2851 19.5663 43.2791 18.6623 41.0781C18.5413 40.7801 18.6833 40.4391 18.9813 40.3161C19.2793 40.1961 19.6202 40.3361 19.7452 40.6351C20.5992 42.7181 21.7763 44.6191 23.3453 46.4531C23.5283 46.6611 23.7163 46.7461 23.8283 46.7721C23.8193 46.7041 23.7983 46.6011 23.7433 46.4571C22.7733 43.8571 21.8463 41.0771 21.6053 38.3141C21.5753 37.9941 21.8153 37.7101 22.1343 37.6821C22.4563 37.6531 22.7393 37.893 22.7673 38.214C22.9953 40.838 23.8953 43.5271 24.8373 46.0441C25.2773 47.2041 24.6823 47.676 24.4873 47.791C24.3123 47.898 24.1092 47.951 23.8962 47.951Z" fill="white"/>
<path d="M49.2548 26.5215H26.0468C25.7248 26.5215 25.4658 26.2615 25.4658 25.9375C25.4658 25.6155 25.7248 25.3555 26.0468 25.3555H49.2548C49.5768 25.3555 49.8388 25.6155 49.8388 25.9375C49.8388 26.2625 49.5768 26.5215 49.2548 26.5215Z" fill="white"/>
<path d="M10.5528 49.9291C10.2178 49.9291 9.90184 49.8541 9.62184 49.7161C8.53284 49.1851 7.76786 47.5881 8.65486 45.3351C9.80986 42.4281 10.9598 39.5221 12.1088 36.6161C13.2608 33.7091 14.4108 30.8011 15.5658 27.8941C16.5448 25.6791 17.7028 24.5871 19.1138 24.5391L24.3128 24.5381C24.6348 24.5381 24.8968 24.7991 24.8968 25.1211V30.4911C24.8968 30.9931 25.2899 31.4011 25.7699 31.4011H49.5098C49.9958 31.4011 50.4058 30.9851 50.4058 30.4911V25.1211C50.4058 24.7991 50.6648 24.5381 50.9868 24.5381H52.2128C53.3768 24.5381 54.3219 25.4891 54.3219 26.6611V34.7181C54.3219 35.8901 53.3768 36.8411 52.2128 36.8411H23.1208C20.7308 37.3111 17.3739 41.1181 13.1419 48.1611C12.3919 49.4251 11.4128 49.9291 10.5528 49.9291ZM19.1388 25.7041C18.2358 25.7381 17.4118 26.6021 16.6428 28.3451C15.4968 31.2321 14.3468 34.1401 13.1948 37.0451C12.0458 39.9511 10.8959 42.8581 9.74086 45.7651C9.12686 47.3271 9.51281 48.3641 10.1338 48.6671C10.6538 48.9241 11.4748 48.6801 12.1408 47.5631C16.6468 40.0631 20.1889 36.1791 22.9649 35.6851C22.9979 35.6781 23.0338 35.6751 23.0688 35.6751H52.2149C52.7259 35.6751 53.1568 35.2371 53.1568 34.7181V26.6611C53.1568 26.1431 52.7249 25.7041 52.2149 25.7041H51.5728V30.4911C51.5728 31.6371 50.6478 32.5691 49.5108 32.5691H25.7708C24.6488 32.5691 23.7298 31.6371 23.7298 30.4911L23.6908 25.7041H19.1388Z" fill="white"/>
<path d="M55.4726 33.5501C55.1906 33.5501 54.9405 33.3431 54.8985 33.0551C54.8495 32.7361 55.0655 32.4391 55.3875 32.3891C57.6955 32.0391 59.3796 31.7841 60.6476 31.5741C61.2316 31.4941 61.7395 31.4151 62.1955 31.3461C62.4635 31.3051 62.7135 31.2651 62.9405 31.2321C62.9535 31.1911 62.9565 31.1531 62.9565 31.1231V30.2351C62.9565 30.2091 62.9536 30.1781 62.9466 30.1501C62.7166 30.1151 62.4635 30.0771 62.1955 30.0361C61.7395 29.9661 61.2315 29.8891 60.6635 29.8091C59.3805 29.5961 57.6955 29.3401 55.3885 28.9911C55.0665 28.9431 54.8506 28.6461 54.8996 28.3251C54.9456 28.0081 55.2495 27.7951 55.5625 27.8361C57.8755 28.1881 59.5665 28.4441 60.8405 28.6551C61.3965 28.7331 61.9135 28.8121 62.3725 28.8821C62.7275 28.9391 63.0506 28.9871 63.3426 29.0271C63.3786 29.0321 63.4125 29.0401 63.4485 29.0511C63.6915 29.1331 63.8835 29.3271 63.9895 29.6001C64.0535 29.7591 64.1236 29.9741 64.1236 30.2361V31.1241C64.1236 31.3891 64.0545 31.6291 63.9895 31.7801C63.8835 32.0521 63.6916 32.2471 63.4546 32.3281C63.4186 32.3421 63.3816 32.3501 63.3426 32.3551C63.0506 32.3961 62.7285 32.4451 62.3725 32.5011C61.9135 32.5711 61.3956 32.6501 60.8246 32.7301C59.5656 32.9371 57.8756 33.1951 55.5616 33.5461C55.5336 33.5471 55.5026 33.5501 55.4726 33.5501Z" fill="white"/>
<path d="M19.4141 36.9807C18.3781 36.9807 17.5352 36.1437 17.5352 35.1137C17.5352 34.0707 18.3781 33.2217 19.4141 33.2217C20.4361 33.2217 21.2692 34.0707 21.2692 35.1137C21.2702 36.1447 20.4371 36.9807 19.4141 36.9807ZM19.4141 34.3887C19.0221 34.3887 18.7031 34.7157 18.7031 35.1147C18.7031 35.5007 19.0221 35.8137 19.4141 35.8137C19.7851 35.8137 20.1022 35.4937 20.1022 35.1147C20.1022 34.7157 19.7911 34.3887 19.4141 34.3887Z" fill="white"/>
<defs>
<linearGradient id="paint0_linear_2082_1004" x1="10.105" y1="58.0625" x2="57.9991" y2="10.1684" gradientUnits="userSpaceOnUse">
<stop stop-color="#63B7B1"/>
<stop offset="0.0978" stop-color="#59AFA9"/>
<stop offset="0.4375" stop-color="#3C9A92"/>
<stop offset="0.7479" stop-color="#288E85"/>
<stop offset="1" stop-color="#1F8A81"/>
</linearGradient>
</defs>
</svg>
