<svg width="67" height="67" viewBox="0 0 67 67" fill="none" xmlns="http://www.w3.org/2000/svg">
<path d="M33.3146 66.1194C51.5427 66.1194 66.3196 51.3425 66.3196 33.1144C66.3196 14.8862 51.5427 0.109375 33.3146 0.109375C15.0864 0.109375 0.30957 14.8862 0.30957 33.1144C0.30957 51.3425 15.0864 66.1194 33.3146 66.1194Z" fill="url(#paint0_linear_2082_923)"/>
<path d="M29.9201 46.7244C29.6211 46.7244 29.3711 46.4914 29.3551 46.1894C29.3321 45.8294 28.8721 37.3214 28.8721 36.4034C28.8721 33.3294 29.9061 31.7744 31.9441 31.7744C33.1881 31.7744 34.2021 32.3764 34.8041 33.4784C35.5821 34.9054 35.5721 37.0694 34.7801 38.2974C34.3991 38.8884 33.8651 39.1914 33.2771 39.1474C32.9641 39.1264 32.7331 38.8554 32.7541 38.5424C32.7761 38.2264 33.0461 37.9934 33.3591 38.0184C33.5191 38.0294 33.6751 37.9164 33.8261 37.6824C34.3321 36.8964 34.4311 35.1664 33.8081 34.0204C33.4031 33.2834 32.7771 32.9044 31.9451 32.9044C30.6041 32.9044 30.0071 33.9854 30.0071 36.4044C30.0071 37.2924 30.4831 46.0414 30.4891 46.1294C30.5061 46.4424 30.2651 46.7104 29.9521 46.7264C29.9431 46.7244 29.9331 46.7244 29.9201 46.7244Z" fill="white"/>
<path d="M36.7066 46.7245C36.6946 46.7245 36.6836 46.7245 36.6736 46.7245C36.3606 46.7085 36.1226 46.4415 36.1396 46.1275C36.1456 46.0395 36.6186 37.2905 36.6186 36.4025C36.6186 33.9835 36.0226 32.9025 34.6836 32.9025C33.8506 32.9025 33.2226 33.2815 32.8186 34.0185C32.1976 35.1645 32.2976 36.8945 32.8036 37.6805C32.9506 37.9145 33.1106 38.0274 33.2666 38.0164C33.5816 37.9924 33.8516 38.2245 33.8746 38.5405C33.8966 38.8535 33.6636 39.1244 33.3516 39.1454C32.7596 39.1894 32.2306 38.8865 31.8446 38.2955C31.0536 37.0665 31.0416 34.9025 31.8236 33.4765C32.4226 32.3735 33.4396 31.7725 34.6826 31.7725C36.7196 31.7725 37.7566 33.3275 37.7566 36.4015C37.7566 37.3195 37.2916 45.8275 37.2716 46.1875C37.2566 46.4905 37.0026 46.7245 36.7066 46.7245Z" fill="white"/>
<path d="M37.9191 46.8395H28.7061C28.1511 46.8395 27.6831 46.4225 27.6251 45.8625C27.4961 44.6405 26.5401 43.5125 25.4351 42.2065C23.5881 40.0265 21.2891 37.3155 21.2891 32.5455C21.2891 25.9145 26.6831 20.5195 33.3141 20.5195C39.9451 20.5195 45.3371 25.9155 45.3371 32.5455C45.3371 37.3165 43.0421 40.0265 41.1911 42.2065C40.0841 43.5135 39.1311 44.6415 38.9991 45.8625C38.9421 46.4225 38.4771 46.8395 37.9191 46.8395ZM28.9481 45.4755H37.6801C37.9321 43.9485 39.0131 42.6725 40.1521 41.3295C41.9441 39.2135 43.9771 36.8145 43.9771 32.5455C43.9771 26.6635 39.1931 21.8795 33.3141 21.8795C27.4341 21.8795 22.6491 26.6635 22.6491 32.5455C22.6491 36.8155 24.6801 39.2135 26.4721 41.3295C27.6111 42.6725 28.6951 43.9475 28.9481 45.4755Z" fill="white"/>
<path d="M32.5362 25.3633C32.2022 25.3633 31.9072 25.1123 31.8622 24.7723C31.8142 24.4013 32.0722 24.0573 32.4462 24.0073C32.7532 23.9663 33.0662 23.9453 33.3752 23.9453C33.7522 23.9453 34.0562 24.2513 34.0562 24.6253C34.0562 25.0023 33.7522 25.3053 33.3752 25.3053C33.1272 25.3053 32.8752 25.3253 32.6272 25.3573C32.5962 25.3603 32.5662 25.3633 32.5362 25.3633Z" fill="white"/>
<path d="M25.6487 31.8726C25.2747 31.8726 24.9697 31.5666 24.9697 31.1896C24.9697 28.1426 26.9187 25.4766 29.8227 24.5606C30.1797 24.4486 30.5667 24.6466 30.6787 25.0056C30.7907 25.3626 30.5937 25.7426 30.2347 25.8576C27.8977 26.5976 26.3307 28.7406 26.3307 31.1896C26.3307 31.5666 26.0277 31.8726 25.6487 31.8726Z" fill="white"/>
<path d="M37.8774 49.2185H28.7474C28.3704 49.2185 28.0664 48.9125 28.0664 48.5355C28.0664 48.1585 28.3704 47.8545 28.7474 47.8545H37.8774C38.2574 47.8545 38.5604 48.1585 38.5604 48.5355C38.5604 48.9125 38.2584 49.2185 37.8774 49.2185Z" fill="white"/>
<path d="M37.6253 51.5964H29.0023C28.6243 51.5964 28.3213 51.2904 28.3213 50.9154C28.3213 50.5374 28.6243 50.2324 29.0023 50.2324H37.6253C38.0023 50.2324 38.3063 50.5374 38.3063 50.9154C38.3063 51.2904 38.0023 51.5964 37.6253 51.5964Z" fill="white"/>
<path d="M37.4285 53.9724H29.2005C28.8255 53.9724 28.5195 53.6664 28.5195 53.2924C28.5195 52.9124 28.8255 52.6084 29.2005 52.6084H37.4285C37.8025 52.6084 38.1095 52.9124 38.1095 53.2924C38.1095 53.6664 37.8025 53.9724 37.4285 53.9724Z" fill="white"/>
<path d="M35.0074 56.3504H31.6205C31.2465 56.3504 30.9395 56.0444 30.9395 55.6704C30.9395 55.2914 31.2465 54.9854 31.6205 54.9854H35.0074C35.3814 54.9854 35.6875 55.2914 35.6875 55.6704C35.6875 56.0444 35.3814 56.3504 35.0074 56.3504Z" fill="white"/>
<path d="M33.3138 15.6888C32.9368 15.6888 32.6328 15.3828 32.6328 15.0088V10.5638C32.6328 10.1898 32.9368 9.88477 33.3138 9.88477C33.6878 9.88477 33.9968 10.1898 33.9968 10.5638V15.0088C33.9968 15.3838 33.6878 15.6888 33.3138 15.6888Z" fill="white"/>
<path d="M20.9148 20.8243C20.7418 20.8243 20.5678 20.7593 20.4358 20.6263L17.2898 17.4843C17.0258 17.2193 17.0258 16.7883 17.2898 16.5213C17.5598 16.2533 17.9878 16.2533 18.2518 16.5213L21.3948 19.6643C21.6628 19.9273 21.6628 20.3583 21.3948 20.6263C21.2628 20.7593 21.0888 20.8243 20.9148 20.8243Z" fill="white"/>
<path d="M48.8535 48.7643C48.6775 48.7643 48.5065 48.6963 48.3715 48.5633L45.2285 45.4203C44.9655 45.1573 44.9655 44.7263 45.2285 44.4583C45.4965 44.1923 45.9275 44.1923 46.1905 44.4583L49.3335 47.6013C49.6015 47.8663 49.6015 48.2973 49.3335 48.5633C49.2005 48.6953 49.0265 48.7643 48.8535 48.7643Z" fill="white"/>
<path d="M15.7783 33.2223H11.3363C10.9623 33.2223 10.6562 32.9163 10.6562 32.5423C10.6562 32.1683 10.9623 31.8623 11.3363 31.8623H15.7783C16.1583 31.8623 16.4603 32.1683 16.4603 32.5423C16.4603 32.9163 16.1583 33.2223 15.7783 33.2223Z" fill="white"/>
<path d="M55.291 33.2223H50.848C50.471 33.2223 50.168 32.9163 50.168 32.5423C50.168 32.1683 50.47 31.8623 50.848 31.8623H55.291C55.668 31.8623 55.969 32.1683 55.969 32.5423C55.969 32.9163 55.668 33.2223 55.291 33.2223Z" fill="white"/>
<path d="M17.7738 48.7643C17.5968 48.7643 17.4238 48.6963 17.2898 48.5633C17.0258 48.2973 17.0258 47.8663 17.2898 47.6013L20.4358 44.4583C20.6988 44.1923 21.1288 44.1923 21.3948 44.4583C21.6628 44.7263 21.6628 45.1573 21.3948 45.4203L18.2518 48.5633C18.1198 48.6953 17.9498 48.7643 17.7738 48.7643Z" fill="white"/>
<path d="M45.7105 20.8243C45.5375 20.8243 45.3605 20.7593 45.2285 20.6263C44.9655 20.3583 44.9655 19.9273 45.2285 19.6643L48.3715 16.5213C48.6395 16.2533 49.0675 16.2533 49.3335 16.5213C49.6015 16.7883 49.6015 17.2193 49.3335 17.4843L46.1905 20.6263C46.0595 20.7593 45.8845 20.8243 45.7105 20.8243Z" fill="white"/>
<defs>
<linearGradient id="paint0_linear_2082_923" x1="9.97707" y1="56.4555" x2="56.6543" y2="9.77835" gradientUnits="userSpaceOnUse">
<stop stop-color="#63B7B1"/>
<stop offset="0.0978" stop-color="#59AFA9"/>
<stop offset="0.4375" stop-color="#3C9A92"/>
<stop offset="0.7479" stop-color="#288E85"/>
<stop offset="1" stop-color="#1F8A81"/>
</linearGradient>
</defs>
</svg>
