<svg width="67" height="67" viewBox="0 0 67 67" fill="none" xmlns="http://www.w3.org/2000/svg">
<path d="M33.0186 66.1184C51.2463 66.1184 66.0227 51.342 66.0227 33.1144C66.0227 14.8868 51.2463 0.110352 33.0186 0.110352C14.791 0.110352 0.0146484 14.8868 0.0146484 33.1144C0.0146484 51.342 14.791 66.1184 33.0186 66.1184Z" fill="url(#paint0_linear_2082_866)"/>
<path d="M39.6919 46.6582C39.1509 46.6582 38.7129 47.0942 38.7129 47.6342C38.7129 48.1782 39.1509 48.6142 39.6919 48.6142C40.2319 48.6142 40.6709 48.1772 40.6709 47.6342C40.6709 47.0942 40.2319 46.6582 39.6919 46.6582Z" fill="white"/>
<path d="M21.4555 43.9111C20.9155 43.9111 20.4795 44.3461 20.4795 44.8901C20.4795 45.4281 20.9155 45.8691 21.4555 45.8691C21.9965 45.8691 22.4375 45.4281 22.4375 44.8901C22.4375 44.3461 21.9965 43.9111 21.4555 43.9111Z" fill="white"/>
<path d="M24.391 44.332C23.853 44.332 23.415 44.769 23.415 45.308C23.415 45.849 23.853 46.287 24.391 46.287C24.933 46.287 25.373 45.849 25.373 45.308C25.373 44.769 24.934 44.332 24.391 44.332Z" fill="white"/>
<path d="M23.4146 49.5938C23.9558 49.5938 24.3946 49.155 24.3946 48.6138C24.3946 48.0726 23.9558 47.6338 23.4146 47.6338C22.8733 47.6338 22.4346 48.0726 22.4346 48.6138C22.4346 49.155 22.8733 49.5938 23.4146 49.5938Z" fill="white"/>
<path d="M28.9526 51.5518C29.4933 51.5518 29.9316 51.1134 29.9316 50.5728C29.9316 50.0321 29.4933 49.5938 28.9526 49.5938C28.4119 49.5938 27.9736 50.0321 27.9736 50.5728C27.9736 51.1134 28.4119 51.5518 28.9526 51.5518Z" fill="white"/>
<path d="M26.522 49.5938C27.0632 49.5938 27.502 49.155 27.502 48.6138C27.502 48.0726 27.0632 47.6338 26.522 47.6338C25.9808 47.6338 25.542 48.0726 25.542 48.6138C25.542 49.155 25.9808 49.5938 26.522 49.5938Z" fill="white"/>
<path d="M31.8892 50.5722C32.4298 50.5722 32.8681 50.1339 32.8681 49.5932C32.8681 49.0525 32.4298 48.6143 31.8892 48.6143C31.3485 48.6143 30.9102 49.0525 30.9102 49.5932C30.9102 50.1339 31.3485 50.5722 31.8892 50.5722Z" fill="white"/>
<path d="M26.522 52.5303C27.0627 52.5303 27.501 52.092 27.501 51.5513C27.501 51.0106 27.0627 50.5723 26.522 50.5723C25.9813 50.5723 25.543 51.0106 25.543 51.5513C25.543 52.092 25.9813 52.5303 26.522 52.5303Z" fill="white"/>
<path d="M30.9096 53.5078C31.4498 53.5078 31.8876 53.0699 31.8876 52.5298C31.8876 51.9896 31.4498 51.5518 30.9096 51.5518C30.3695 51.5518 29.9316 51.9896 29.9316 52.5298C29.9316 53.0699 30.3695 53.5078 30.9096 53.5078Z" fill="white"/>
<path d="M37.0425 48.0215C37.5837 48.0215 38.0225 47.5827 38.0225 47.0415C38.0225 46.5003 37.5837 46.0615 37.0425 46.0615C36.5013 46.0615 36.0625 46.5003 36.0625 47.0415C36.0625 47.5827 36.5013 48.0215 37.0425 48.0215Z" fill="white"/>
<path d="M34.4175 52.5303C34.9582 52.5303 35.3965 52.092 35.3965 51.5513C35.3965 51.0106 34.9582 50.5723 34.4175 50.5723C33.8768 50.5723 33.4385 51.0106 33.4385 51.5513C33.4385 52.092 33.8768 52.5303 34.4175 52.5303Z" fill="white"/>
<path d="M34.8901 49.7803C35.4308 49.7803 35.8691 49.342 35.8691 48.8013C35.8691 48.2606 35.4308 47.8223 34.8901 47.8223C34.3494 47.8223 33.9111 48.2606 33.9111 48.8013C33.9111 49.342 34.3494 49.7803 34.8901 49.7803Z" fill="white"/>
<path d="M37.6313 49.0078C37.0913 49.0078 36.6523 49.4438 36.6523 49.9868C36.6523 50.5248 37.0913 50.9628 37.6313 50.9628C38.1733 50.9628 38.6093 50.5248 38.6093 49.9868C38.6083 49.4428 38.1723 49.0078 37.6313 49.0078Z" fill="white"/>
<path d="M56.5279 31.4609H48.0549C45.4329 31.4609 43.1739 33.3189 42.6279 35.8459H36.5259C37.1189 29.9619 42.0839 25.4289 48.0549 25.4289H56.5279C56.7999 25.4289 57.0159 25.2089 57.0159 24.9399C57.0159 24.6679 56.7999 24.4479 56.5279 24.4479H48.0549C41.5459 24.4479 36.1389 29.4189 35.5429 35.8459C34.6489 35.8679 33.9289 36.6059 33.9289 37.5039V38.5679C33.9289 39.4489 34.6159 40.1709 35.4859 40.2229V42.5679C35.4859 45.0929 33.4349 47.1439 30.9099 47.1439C28.3859 47.1439 26.3349 45.0929 26.3349 42.5679V30.0969C27.2489 30.0909 27.9909 29.3519 27.9909 28.4349V27.3729C27.9909 26.4599 27.2489 25.7149 26.3349 25.7119V11.5759C26.3349 11.3049 26.1149 11.0879 25.8419 11.0879C25.5729 11.0879 25.3559 11.3049 25.3559 11.5759V20.6779C24.0039 20.6309 23.2669 20.3869 22.4919 20.1249C21.6769 19.8529 20.8369 19.5699 19.3189 19.5199V11.5769C19.3189 11.3059 19.1019 11.0889 18.8299 11.0889C18.5589 11.0889 18.3399 11.3059 18.3399 11.5769V25.7289C17.5209 25.8219 16.8779 26.5239 16.8779 27.3739V28.4359C16.8779 29.2869 17.5209 29.9859 18.3399 30.0839V42.5679C18.3399 49.5009 23.9819 55.1389 30.9099 55.1389C37.8419 55.1389 43.4809 49.4999 43.4809 42.5679V40.2229C44.3479 40.1699 45.0379 39.4489 45.0379 38.5679V37.5039C45.0379 36.6779 44.4269 35.9879 43.6299 35.8649C44.1469 33.8799 45.9589 32.4399 48.0549 32.4399H56.5279C56.7999 32.4399 57.0159 32.2219 57.0159 31.9539C57.0159 31.6809 56.7999 31.4609 56.5279 31.4609ZM22.1809 21.0539C22.9989 21.3269 23.8399 21.6079 25.3569 21.6579V25.7129H19.3199V20.5029C20.6719 20.5489 21.4079 20.7949 22.1809 21.0539ZM17.8579 28.4359V27.3739C17.8579 26.9969 18.1639 26.6939 18.5379 26.6939H26.3309C26.7059 26.6939 27.0119 26.9969 27.0119 27.3739V28.4359C27.0119 28.8099 26.7069 29.1189 26.3309 29.1189H25.8519C25.8489 29.1189 25.8459 29.1189 25.8429 29.1189H18.8349C18.8349 29.1189 18.8339 29.1189 18.8309 29.1189C18.8309 29.1189 18.8279 29.1189 18.8249 29.1189H18.5389C18.1639 29.1179 17.8579 28.8099 17.8579 28.4359ZM30.9099 54.1599C24.5219 54.1599 19.3189 48.9579 19.3189 42.5679V30.0969H25.3559V42.5679C25.3559 45.6339 27.8479 48.1229 30.9099 48.1229C33.9729 48.1229 36.4649 45.6349 36.4649 42.5679V40.2249H42.4999V42.5679C42.4999 48.9579 37.3009 54.1599 30.9099 54.1599ZM44.0589 37.5039V38.5679C44.0589 38.9419 43.7559 39.2479 43.3829 39.2479H42.9979L42.9919 39.2449C42.9879 39.2449 42.9879 39.2479 42.9849 39.2479H35.9839C35.9829 39.2479 35.9829 39.2449 35.9769 39.2449L35.9709 39.2479H35.5869C35.2129 39.2479 34.9099 38.9419 34.9099 38.5679V37.5039C34.9099 37.1309 35.2129 36.8249 35.5869 36.8249H43.3839C43.7559 36.8249 44.0589 37.1309 44.0589 37.5039Z" fill="white"/>
<defs>
<linearGradient id="paint0_linear_2082_866" x1="9.68225" y1="56.4525" x2="56.3573" y2="9.77757" gradientUnits="userSpaceOnUse">
<stop stop-color="#63B7B1"/>
<stop offset="0.0978" stop-color="#59AFA9"/>
<stop offset="0.4375" stop-color="#3C9A92"/>
<stop offset="0.7479" stop-color="#288E85"/>
<stop offset="1" stop-color="#1F8A81"/>
</linearGradient>
</defs>
</svg>
