<svg width="75" height="75" viewBox="0 0 75 75" fill="none" xmlns="http://www.w3.org/2000/svg">
<g filter="url(#filter0_d_2082_884)">
<path d="M70.6145 33.1144C70.6145 51.3404 55.8345 66.1204 37.6085 66.1204C19.3805 66.1204 4.60547 51.3404 4.60547 33.1144C4.60547 14.8854 19.3805 0.109375 37.6085 0.109375C55.8345 0.109375 70.6145 14.8854 70.6145 33.1144Z" fill="url(#paint0_linear_2082_884)"/>
<path d="M57.5641 12.543H17.6472C17.3102 12.543 17.0352 12.815 17.0352 13.152V18.239C17.0352 18.58 17.3102 18.855 17.6472 18.855H18.9962V53.075C18.9962 53.411 19.2711 53.684 19.6051 53.684H55.6061C55.9461 53.684 56.2202 53.411 56.2202 53.075V18.855H57.5641C57.9051 18.855 58.1812 18.58 58.1812 18.239V13.152C58.1822 12.815 57.9051 12.543 57.5641 12.543ZM23.2741 34.742H51.9402V49.405H23.2741V34.742ZM20.2211 33.516V31.564H54.9981V33.519L20.2211 33.516ZM20.2211 27.162V25.212H54.9981V27.162H20.2211ZM54.9981 28.385V30.34H20.2211V28.385H54.9981ZM54.9981 23.983H20.2211V22.034H54.9981V23.983ZM20.2211 52.459V34.742H22.0471V50.017C22.0471 50.355 22.3221 50.633 22.6591 50.633H52.5562C52.8902 50.633 53.1642 50.355 53.1642 50.017V34.742H54.9971V52.459H20.2211ZM54.9981 20.805H20.2211V18.856H54.9981V20.805ZM56.9532 17.632H18.2621V13.769H56.9532V17.632Z" fill="white"/>
<path d="M37.4922 40.6433L34.0132 37.1673C33.7762 36.9273 33.3882 36.9273 33.1492 37.1673L29.6682 40.6433C29.4322 40.8813 29.4322 41.2693 29.6682 41.5073C29.7832 41.6233 29.9432 41.6903 30.1032 41.6903H31.6262V46.5503C31.6262 46.8863 31.9012 47.1613 32.2392 47.1613H34.9212C35.2612 47.1613 35.5372 46.8863 35.5372 46.5503V41.6933H37.0602C37.3942 41.6933 37.6702 41.4193 37.6732 41.0783C37.6722 40.9173 37.6072 40.7583 37.4922 40.6433ZM34.9212 40.4603C34.5852 40.4603 34.3102 40.7353 34.3102 41.0773V45.9373H32.8532V41.0773C32.8532 40.7353 32.5782 40.4603 32.2422 40.4603H32.2392H31.5852L33.5812 38.4703L35.5772 40.4603H34.9212Z" fill="white"/>
<path d="M45.11 42.4592H43.589V37.5992C43.589 37.2602 43.313 36.9912 42.975 36.9912H40.293C39.956 36.9912 39.679 37.2612 39.679 37.5992V42.4592H38.158C37.817 42.4592 37.542 42.7342 37.542 43.0732C37.542 43.2342 37.607 43.3892 37.723 43.5052L41.199 46.9822C41.442 47.2222 41.825 47.2242 42.068 46.9852V46.9822L45.544 43.5052C45.784 43.2682 45.784 42.8802 45.544 42.6392C45.43 42.5222 45.274 42.4592 45.11 42.4592ZM41.635 45.6852L39.638 43.6862H40.294C40.635 43.6862 40.908 43.4172 40.908 43.0782V43.0752V38.2152H42.364V43.0742C42.364 43.4152 42.635 43.6832 42.975 43.6832H43.629L41.635 45.6852Z" fill="white"/>
</g>
<defs>
<filter id="filter0_d_2082_884" x="0.605469" y="0.109375" width="74.0088" height="74.0107" filterUnits="userSpaceOnUse" color-interpolation-filters="sRGB">
<feFlood flood-opacity="0" result="BackgroundImageFix"/>
<feColorMatrix in="SourceAlpha" type="matrix" values="0 0 0 0 0 0 0 0 0 0 0 0 0 0 0 0 0 0 127 0" result="hardAlpha"/>
<feOffset dy="4"/>
<feGaussianBlur stdDeviation="2"/>
<feComposite in2="hardAlpha" operator="out"/>
<feColorMatrix type="matrix" values="0 0 0 0 0 0 0 0 0 0 0 0 0 0 0 0 0 0 0.25 0"/>
<feBlend mode="normal" in2="BackgroundImageFix" result="effect1_dropShadow_2082_884"/>
<feBlend mode="normal" in="SourceGraphic" in2="effect1_dropShadow_2082_884" result="shape"/>
</filter>
<linearGradient id="paint0_linear_2082_884" x1="14.2724" y1="56.4525" x2="60.9474" y2="9.77756" gradientUnits="userSpaceOnUse">
<stop stop-color="#63B7B1"/>
<stop offset="0.0978" stop-color="#59AFA9"/>
<stop offset="0.4375" stop-color="#3C9A92"/>
<stop offset="0.7479" stop-color="#288E85"/>
<stop offset="1" stop-color="#1F8A81"/>
</linearGradient>
</defs>
</svg>
