<svg width="67" height="67" viewBox="0 0 67 67" fill="none" xmlns="http://www.w3.org/2000/svg">
<path d="M33.7579 66.1194C51.9861 66.1194 66.7629 51.3425 66.7629 33.1144C66.7629 14.8862 51.9861 0.109375 33.7579 0.109375C15.5298 0.109375 0.75293 14.8862 0.75293 33.1144C0.75293 51.3425 15.5298 66.1194 33.7579 66.1194Z" fill="url(#paint0_linear_2082_858)"/>
<path d="M59.8268 36.443H47.8018V29.707H59.8268C60.1428 29.707 60.3978 29.451 60.3978 29.139C60.3978 28.823 60.1428 28.567 59.8268 28.567H47.8018V28.261C47.8018 27.465 47.1548 26.816 46.3548 26.816H44.8928C44.0958 26.816 43.4488 27.465 43.4488 28.261V28.564H39.1948V23.042H39.4988C40.2958 23.042 40.9458 22.393 40.9458 21.595V20.135C40.9458 19.338 40.2958 18.69 39.4988 18.69H38.1738V16.331H43.2908C44.4878 16.331 45.4648 15.354 45.4648 14.156V12.55C45.4648 11.352 44.4878 10.376 43.2908 10.376H41.3908C40.2598 10.376 39.1198 10.628 38.0978 11.11C37.0358 11.61 35.8538 11.873 34.6828 11.873C33.5128 11.873 32.3298 11.61 31.2688 11.111C30.2448 10.628 29.1068 10.376 27.9758 10.376H26.0788C24.8748 10.376 23.8988 11.352 23.8988 12.55V14.156C23.8988 15.354 24.8748 16.331 26.0788 16.331H31.1928V18.69H29.8708C29.0708 18.69 28.4268 19.338 28.4268 20.135V21.595C28.4268 22.393 29.0718 23.042 29.8708 23.042H30.1748V28.564H25.9178V28.261C25.9178 27.465 25.2708 26.816 24.4708 26.816H23.0148C22.2178 26.816 21.5678 27.465 21.5678 28.261V28.567H9.53677C9.22377 28.567 8.96777 28.823 8.96777 29.139C8.96777 29.451 9.22377 29.707 9.53677 29.707H21.5678V36.443H9.53677C9.22377 36.443 8.96777 36.7 8.96777 37.016C8.96777 37.332 9.22377 37.587 9.53677 37.587H21.5678V37.89C21.5678 38.687 22.2178 39.335 23.0148 39.335H24.4708C25.2708 39.335 25.9178 38.687 25.9178 37.89V37.587H43.4498V37.89C43.4498 38.687 44.0968 39.335 44.8938 39.335H46.3558C47.1558 39.335 47.8028 38.687 47.8028 37.89V37.587H59.8278C60.1438 37.587 60.3988 37.332 60.3988 37.016C60.3988 36.7 60.1438 36.443 59.8268 36.443ZM25.0438 14.154V12.548C25.0438 11.98 25.5028 11.514 26.0768 11.514H27.9738C28.9408 11.514 29.9078 11.732 30.7808 12.145C31.9938 12.714 33.3428 13.016 34.6808 13.016C36.0218 13.016 37.3688 12.714 38.5848 12.145C39.4548 11.732 40.4248 11.514 41.3888 11.514H43.2888C43.8568 11.514 44.3188 11.98 44.3188 12.548V14.154C44.3188 14.723 43.8568 15.185 43.2888 15.185H26.0758C25.5028 15.186 25.0438 14.724 25.0438 14.154ZM32.3378 16.329H37.0288V18.688H32.3378V16.329ZM29.5638 21.594V20.134C29.5638 19.967 29.6978 19.831 29.8688 19.831H39.4978C39.6618 19.831 39.8028 19.967 39.8028 20.134V21.594C39.8028 21.762 39.6618 21.896 39.4978 21.896H29.8688C29.6978 21.896 29.5638 21.762 29.5638 21.594ZM38.0508 23.041V29.136C38.0508 29.139 38.0508 29.139 38.0508 29.139V29.765C36.0298 31.168 33.3348 31.168 31.3168 29.765V23.041H38.0508ZM24.7728 37.891C24.7728 38.058 24.6388 38.195 24.4678 38.195H23.0118C22.8408 38.195 22.7068 38.058 22.7068 37.891V28.261C22.7068 28.094 22.8408 27.959 23.0118 27.959H24.4678C24.6388 27.959 24.7728 28.094 24.7728 28.261V29.125C24.7728 29.131 24.7728 29.132 24.7728 29.132C24.7728 29.142 24.7728 29.145 24.7728 29.145V37.891ZM25.9158 36.443V29.707H30.1728V30.054C30.1728 30.234 30.2548 30.401 30.3988 30.508C31.6568 31.475 33.1708 31.96 34.6818 31.96C36.1938 31.96 37.7068 31.475 38.9728 30.508C39.1098 30.401 39.1948 30.234 39.1948 30.054V29.707H43.4488V36.443H25.9158ZM46.6578 37.891C46.6578 38.058 46.5208 38.195 46.3538 38.195H44.8918C44.7268 38.195 44.5898 38.058 44.5898 37.891V29.145C44.5898 29.142 44.5898 29.139 44.5898 29.136V29.131V28.261C44.5898 28.094 44.7268 27.959 44.8918 27.959H46.3538C46.5208 27.959 46.6578 28.094 46.6578 28.261V37.891Z" fill="white"/>
<path d="M51.3074 45.6481C51.3074 43.9221 49.7044 40.6971 49.6384 40.5611C49.5404 40.3671 49.3404 40.2471 49.1274 40.2471C48.9074 40.2471 48.7074 40.3671 48.6164 40.5611C48.5434 40.6971 46.9434 43.9221 46.9434 45.6481C46.9434 47.3401 48.3394 47.8951 49.0814 47.9531C49.0934 47.9531 49.1114 47.9531 49.1274 47.9531C49.1394 47.9531 49.1544 47.9531 49.1694 47.9531C49.9084 47.8961 51.3074 47.3411 51.3074 45.6481ZM49.1274 46.8071C48.8684 46.7741 48.0874 46.59 48.0874 45.649C48.0874 44.795 48.6474 43.2931 49.1274 42.1831C49.6044 43.2921 50.1634 44.791 50.1634 45.649C50.1634 46.59 49.3794 46.7731 49.1274 46.8071Z" fill="white"/>
<path d="M52.8071 48.0684C52.5881 48.0684 52.3901 48.1914 52.2961 48.3844C52.2261 48.5214 50.623 51.7444 50.623 53.4714C50.623 55.1644 52.019 55.7164 52.761 55.7744C52.78 55.7744 52.7881 55.7784 52.8071 55.7784C52.8191 55.7784 52.834 55.7744 52.85 55.7744C53.588 55.7164 54.9871 55.1654 54.9871 53.4714C54.9871 51.7444 53.3851 48.5214 53.3181 48.3844C53.2171 48.1914 53.0201 48.0684 52.8071 48.0684ZM52.8071 54.6324C52.5481 54.5954 51.7671 54.4114 51.7671 53.4724C51.7671 52.6174 52.3271 51.1164 52.8071 50.0044C53.2851 51.1154 53.847 52.6164 53.847 53.4724C53.847 54.4114 53.0621 54.5954 52.8071 54.6324Z" fill="white"/>
<path d="M45.6245 48.1465C45.4055 48.1465 45.2075 48.2715 45.1135 48.4625C45.0435 48.6015 43.4404 51.8255 43.4404 53.5495C43.4404 55.2425 44.8394 55.7975 45.5784 55.8545C45.5974 55.8545 45.6055 55.8565 45.6245 55.8565C45.6365 55.8565 45.6514 55.8545 45.6664 55.8545C46.4084 55.7975 47.8074 55.2435 47.8074 53.5495C47.8074 51.8255 46.2024 48.6015 46.1354 48.4625C46.0374 48.2715 45.8375 48.1465 45.6245 48.1465ZM45.6245 54.7105C45.3655 54.6755 44.5845 54.4915 44.5845 53.5505C44.5845 52.6975 45.1465 51.1965 45.6245 50.0845C46.1025 51.1935 46.6644 52.6955 46.6644 53.5505C46.6644 54.4915 45.8795 54.6755 45.6245 54.7105Z" fill="white"/>
<defs>
<linearGradient id="paint0_linear_2082_858" x1="10.4198" y1="56.4535" x2="57.0958" y2="9.77745" gradientUnits="userSpaceOnUse">
<stop stop-color="#63B7B1"/>
<stop offset="0.0978" stop-color="#59AFA9"/>
<stop offset="0.4375" stop-color="#3C9A92"/>
<stop offset="0.7479" stop-color="#288E85"/>
<stop offset="1" stop-color="#1F8A81"/>
</linearGradient>
</defs>
</svg>
