<svg width="67" height="67" viewBox="0 0 67 67" fill="none" xmlns="http://www.w3.org/2000/svg">
<path d="M33.462 66.1194C51.6902 66.1194 66.467 51.3425 66.467 33.1144C66.467 14.8862 51.6902 0.109375 33.462 0.109375C15.2339 0.109375 0.457031 14.8862 0.457031 33.1144C0.457031 51.3425 15.2339 66.1194 33.462 66.1194Z" fill="url(#paint0_linear_2082_891)"/>
<path d="M49.7846 12.3545H17.0476C16.2006 12.3545 15.5166 13.0425 15.5166 13.8865V52.3405C15.5166 53.1875 16.2006 53.8705 17.0476 53.8705H49.7846C50.6266 53.8705 51.3136 53.1865 51.3136 52.3405V13.8865C51.3136 13.0425 50.6266 12.3545 49.7846 12.3545ZM50.1586 52.3415C50.1586 52.5495 49.9916 52.7155 49.7846 52.7155H17.0476C16.8396 52.7155 16.6676 52.5495 16.6676 52.3415V13.8875C16.6676 13.6785 16.8396 13.5135 17.0476 13.5135H49.7846C49.9916 13.5135 50.1586 13.6785 50.1586 13.8875V52.3415Z" fill="white"/>
<path d="M32.1195 36.0459C31.8025 36.0459 31.5435 36.3089 31.5435 36.6239V49.3629C31.5435 49.5669 31.3945 49.7399 31.2245 49.7399H20.7375C20.5675 49.7399 20.4245 49.5669 20.4245 49.3629V16.7409C20.4245 16.5349 20.5645 16.3639 20.7375 16.3639H31.2245C31.3945 16.3639 31.5435 16.5379 31.5435 16.7409V27.2629C31.5435 27.5819 31.8025 27.8399 32.1195 27.8399C32.4355 27.8399 32.6975 27.5819 32.6975 27.2629V16.7409C32.6975 15.8969 32.0345 15.2119 31.2245 15.2119H20.7375C19.9285 15.2119 19.2686 15.8979 19.2686 16.7409V49.3629C19.2686 50.2069 19.9285 50.8949 20.7375 50.8949H31.2245C32.0345 50.8949 32.6975 50.2069 32.6975 49.3629V36.6239C32.6965 36.3089 32.4355 36.0459 32.1195 36.0459Z" fill="white"/>
<path d="M46.0928 15.2119H35.6048C34.7928 15.2119 34.1328 15.8979 34.1328 16.7409V49.3629C34.1328 50.2069 34.7928 50.8949 35.6048 50.8949H46.0928C46.9018 50.8949 47.5608 50.2069 47.5608 49.3629V16.7409C47.5608 15.8969 46.9008 15.2119 46.0928 15.2119ZM46.4058 49.3629C46.4058 49.5669 46.2628 49.7399 46.0928 49.7399H35.6048C35.4348 49.7399 35.2918 49.5669 35.2918 49.3629V16.7409C35.2918 16.5349 35.4318 16.3639 35.6048 16.3639H46.0928C46.2628 16.3639 46.4058 16.5379 46.4058 16.7409V49.3629Z" fill="white"/>
<path d="M32.8397 30.3264C32.5407 29.8744 32.0367 29.6084 31.4927 29.6084C31.1737 29.6084 30.8637 29.6994 30.5967 29.8774L25.5137 33.2684C25.1507 33.5064 24.9087 33.8754 24.8237 34.2954C24.7387 34.7234 24.8267 35.1544 25.0637 35.5124L25.4967 36.1624C25.7997 36.6134 26.2997 36.8834 26.8457 36.8834C27.1627 36.8834 27.4747 36.7874 27.7417 36.6114L32.8247 33.2174C33.1847 32.9794 33.4267 32.6114 33.5147 32.1904C33.5967 31.7674 33.5117 31.3364 33.2727 30.9754L32.8397 30.3264ZM32.3837 31.9624C32.3667 32.0304 32.3227 32.1624 32.1857 32.2584L27.1027 35.6494C27.0277 35.6994 26.9397 35.7264 26.8477 35.7264C26.6907 35.7264 26.5477 35.6494 26.4617 35.5224L26.0287 34.8714C25.9377 34.7344 25.9447 34.5944 25.9587 34.5254C25.9747 34.4564 26.0167 34.3254 26.1547 34.2304L31.2417 30.8374C31.4497 30.6994 31.7457 30.7644 31.8817 30.9664L32.3137 31.6154C32.4067 31.7534 32.3947 31.8934 32.3837 31.9624Z" fill="white"/>
<path d="M43.4927 34.4342C43.6027 34.3252 43.6627 34.1783 43.6627 34.0273C43.6627 33.8703 43.6017 33.7273 43.4927 33.6183C43.3817 33.5063 43.2387 33.4482 43.0857 33.4482C42.9307 33.4482 42.7827 33.5063 42.6717 33.6183L37.9297 38.3622C37.8187 38.4702 37.7617 38.6162 37.7617 38.7702C37.7617 38.9232 37.8197 39.0692 37.9297 39.1772C38.1467 39.3932 38.5257 39.3932 38.7457 39.1772L43.4927 34.4342Z" fill="white"/>
<path d="M43.476 37.6094C43.321 37.6094 43.1739 37.6674 43.0649 37.7734L38.8409 42.0004C38.7299 42.1124 38.6689 42.2554 38.6689 42.4124C38.6689 42.5634 38.7299 42.7104 38.8409 42.8194C39.0569 43.0364 39.44 43.0364 39.657 42.8194L43.8819 38.5924C43.9929 38.4834 44.0519 38.3404 44.0519 38.1864C44.0519 38.0294 43.9929 37.8854 43.8819 37.7734C43.7719 37.6674 43.63 37.6094 43.476 37.6094Z" fill="white"/>
<defs>
<linearGradient id="paint0_linear_2082_891" x1="10.125" y1="56.4525" x2="56.8005" y2="9.77695" gradientUnits="userSpaceOnUse">
<stop stop-color="#63B7B1"/>
<stop offset="0.0978" stop-color="#59AFA9"/>
<stop offset="0.4375" stop-color="#3C9A92"/>
<stop offset="0.7479" stop-color="#288E85"/>
<stop offset="1" stop-color="#1F8A81"/>
</linearGradient>
</defs>
</svg>
