<svg width="69" height="69" viewBox="0 0 69 69" fill="none" xmlns="http://www.w3.org/2000/svg">
<path d="M68.2876 34.4988C68.2876 53.2028 53.1246 68.3668 34.4226 68.3668C15.7166 68.3668 0.557617 53.2018 0.557617 34.4988C0.557617 15.7948 15.7166 0.631836 34.4226 0.631836C53.1246 0.631836 68.2876 15.7948 68.2876 34.4988Z" fill="url(#paint0_linear_2082_817)"/>
<path d="M38.1618 14.8596C37.8668 14.8596 37.6268 14.6196 37.6268 14.3226C37.6268 11.0706 34.9808 8.42555 31.7288 8.42555C28.4788 8.42555 25.8358 11.0716 25.8358 14.3226C25.8358 14.6186 25.5958 14.8596 25.2978 14.8596C24.9998 14.8596 24.7598 14.6196 24.7598 14.3226C24.7598 10.4796 27.8888 7.35156 31.7288 7.35156C35.5718 7.35156 38.6978 10.4786 38.6978 14.3226C38.6968 14.6196 38.4568 14.8596 38.1618 14.8596Z" fill="white"/>
<path d="M25.2978 54.4563C24.9998 54.4563 24.7598 54.2163 24.7598 53.9193V27.1913C24.7598 26.8953 24.9998 26.6543 25.2978 26.6543C25.5958 26.6543 25.8358 26.8943 25.8358 27.1913V53.9193C25.8358 54.2163 25.5958 54.4563 25.2978 54.4563Z" fill="white"/>
<path d="M25.2978 23.0601C24.9998 23.0601 24.7598 22.8201 24.7598 22.5231V14.3231C24.7598 14.0261 24.9998 13.7861 25.2978 13.7861C25.5958 13.7861 25.8358 14.0261 25.8358 14.3231V22.5231C25.8358 22.8191 25.5958 23.0601 25.2978 23.0601Z" fill="white"/>
<path d="M38.1611 54.4562C37.8631 54.4562 37.623 54.2162 37.623 53.9192V14.3222C37.623 14.0252 37.8631 13.7852 38.1611 13.7852C38.4561 13.7852 38.696 14.0252 38.696 14.3222V53.9192C38.696 54.2162 38.4561 54.4562 38.1611 54.4562Z" fill="white"/>
<path d="M31.7281 29.132C29.3721 29.132 27.457 27.215 27.457 24.857C27.457 22.501 29.3721 20.584 31.7281 20.584C34.0871 20.584 36.0031 22.501 36.0031 24.857C36.0031 27.215 34.0871 29.132 31.7281 29.132ZM31.7281 21.656C29.9641 21.656 28.5301 23.093 28.5301 24.858C28.5301 26.625 29.9651 28.061 31.7281 28.061C33.4951 28.061 34.9301 26.624 34.9301 24.858C34.9301 23.092 33.4941 21.656 31.7281 21.656Z" fill="white"/>
<path d="M31.7281 41.5724C29.3721 41.5724 27.457 39.6544 27.457 37.2974C27.457 34.9404 29.3721 33.0244 31.7281 33.0244C34.0871 33.0244 36.0031 34.9414 36.0031 37.2974C36.0031 39.6534 34.0871 41.5724 31.7281 41.5724ZM31.7281 34.0954C29.9641 34.0954 28.5301 35.5324 28.5301 37.2974C28.5301 39.0624 29.9651 40.4994 31.7281 40.4994C33.4951 40.4994 34.9301 39.0624 34.9301 37.2974C34.9301 35.5324 33.4941 34.0954 31.7281 34.0954Z" fill="white"/>
<path d="M31.7286 16.4083C30.5796 16.4083 29.6426 15.4733 29.6426 14.3233C29.6426 13.1713 30.5796 12.2363 31.7286 12.2363C32.8806 12.2363 33.8176 13.1713 33.8176 14.3233C33.8166 15.4743 32.8806 16.4083 31.7286 16.4083ZM31.7286 13.3093C31.1716 13.3093 30.7156 13.7643 30.7156 14.3233C30.7156 14.8813 31.1716 15.3353 31.7286 15.3353C32.2906 15.3353 32.7446 14.8803 32.7446 14.3233C32.7436 13.7633 32.2906 13.3093 31.7286 13.3093Z" fill="white"/>
<path d="M31.7286 56.007C30.5796 56.007 29.6426 55.072 29.6426 53.92C29.6426 52.769 30.5796 51.834 31.7286 51.834C32.8806 51.834 33.8176 52.769 33.8176 53.92C33.8166 55.073 32.8806 56.007 31.7286 56.007ZM31.7286 52.908C31.1716 52.908 30.7156 53.363 30.7156 53.921C30.7156 54.48 31.1716 54.935 31.7286 54.935C32.2906 54.935 32.7446 54.48 32.7446 53.921C32.7436 53.362 32.2906 52.908 31.7286 52.908Z" fill="white"/>
<path d="M31.7288 60.8907C27.8888 60.8907 24.7598 57.7637 24.7598 53.9207C24.7598 53.6237 24.9998 53.3857 25.2978 53.3857C25.5958 53.3857 25.8358 53.6237 25.8358 53.9207C25.8358 57.1717 28.4788 59.8177 31.7288 59.8177C34.9818 59.8177 37.6268 57.1717 37.6268 53.9207C37.6268 53.6237 37.8668 53.3857 38.1618 53.3857C38.4568 53.3857 38.6968 53.6237 38.6968 53.9207C38.6968 57.7637 35.5708 60.8907 31.7288 60.8907Z" fill="white"/>
<path d="M28.8125 27.7283H11.3445C10.1315 27.7283 9.14648 26.7423 9.14648 25.5303V24.1853C9.14648 22.9733 10.1315 21.9873 11.3445 21.9873H28.8125C29.1075 21.9873 29.3475 22.2273 29.3475 22.5243C29.3475 22.8213 29.1075 23.0613 28.8125 23.0613H11.3445C10.7245 23.0613 10.2195 23.5663 10.2195 24.1863V25.5313C10.2195 26.1523 10.7245 26.6563 11.3445 26.6563H28.8125C29.1075 26.6563 29.3475 26.8963 29.3475 27.1933C29.3475 27.4903 29.1065 27.7283 28.8125 27.7283Z" fill="white"/>
<path d="M31.6308 48.1838C30.0708 48.1838 28.8008 46.9128 28.8008 45.3518V40.1689C28.8008 39.8729 29.0408 39.6318 29.3358 39.6318C29.6308 39.6318 29.8738 39.8719 29.8738 40.1689V45.3518C29.8738 46.3218 30.6608 47.1089 31.6308 47.1089C32.7108 47.1089 33.5858 46.2338 33.5858 45.1548V40.1689C33.5858 39.8729 33.8258 39.6318 34.1238 39.6318C34.4188 39.6318 34.6588 39.8719 34.6588 40.1689V45.1548C34.6588 46.8248 33.3008 48.1838 31.6308 48.1838Z" fill="white"/>
<path d="M31.7284 39.6478C31.4334 39.6478 31.1934 39.4077 31.1934 39.1127V35.9657C31.1934 35.6697 31.4334 35.4277 31.7284 35.4277C32.0264 35.4277 32.2664 35.6697 32.2664 35.9657V39.1127C32.2664 39.4077 32.0254 39.6478 31.7284 39.6478Z" fill="white"/>
<path d="M44.3612 60.8905C44.0662 60.8905 43.8262 60.6505 43.8262 60.3535V7.88954C43.8262 7.59354 44.0662 7.35254 44.3612 7.35254C44.6592 7.35254 44.8992 7.59254 44.8992 7.88954V60.3535C44.8992 60.6495 44.6592 60.8905 44.3612 60.8905Z" fill="white"/>
<path d="M55.5902 27.317H44.3612C44.0662 27.317 43.8262 27.077 43.8262 26.78C43.8262 26.484 44.0662 26.242 44.3612 26.242H55.0542V24.41H44.3612C44.0662 24.41 43.8262 24.168 43.8262 23.871C43.8262 23.575 44.0662 23.334 44.3612 23.334H55.5902C55.8852 23.334 56.1252 23.574 56.1252 23.871V26.779C56.1252 27.077 55.8852 27.317 55.5902 27.317Z" fill="white"/>
<path d="M55.5902 33.7359H44.3612C44.0662 33.7359 43.8262 33.4969 43.8262 33.2009C43.8262 32.9049 44.0662 32.6629 44.3612 32.6629H55.0542V30.8299H44.3612C44.0662 30.8299 43.8262 30.5899 43.8262 30.2929C43.8262 29.9959 44.0662 29.7559 44.3612 29.7559H55.5902C55.8852 29.7559 56.1252 29.9959 56.1252 30.2929V33.2009C56.1252 33.4969 55.8852 33.7359 55.5902 33.7359Z" fill="white"/>
<path d="M55.5902 40.1558H44.3612C44.0662 40.1558 43.8262 39.9158 43.8262 39.6208C43.8262 39.3228 44.0662 39.0828 44.3612 39.0828H55.0542V37.2498H44.3612C44.0662 37.2498 43.8262 37.0078 43.8262 36.7128C43.8262 36.4168 44.0662 36.1758 44.3612 36.1758H55.5902C55.8852 36.1758 56.1252 36.4158 56.1252 36.7128V39.6208C56.1252 39.9158 55.8852 40.1558 55.5902 40.1558Z" fill="white"/>
<path d="M55.5902 46.5757H44.3612C44.0662 46.5757 43.8262 46.3357 43.8262 46.0387C43.8262 45.7417 44.0662 45.5017 44.3612 45.5017H55.0542V43.6667H44.3612C44.0662 43.6667 43.8262 43.4267 43.8262 43.1317C43.8262 42.8357 44.0662 42.5947 44.3612 42.5947H55.5902C55.8852 42.5947 56.1252 42.8347 56.1252 43.1317V46.0387C56.1252 46.3347 55.8852 46.5757 55.5902 46.5757Z" fill="white"/>
<path d="M46.7512 53.791H44.3612C44.0662 53.791 43.8262 53.549 43.8262 53.253C43.8262 52.957 44.0662 52.718 44.3612 52.718H46.4802L48.0732 50.573H44.3612C44.0662 50.573 43.8262 50.331 43.8262 50.034C43.8262 49.738 44.0662 49.499 44.3612 49.499H49.1372C49.3412 49.499 49.5262 49.611 49.6172 49.794C49.7082 49.975 49.6902 50.192 49.5682 50.353L47.1812 53.573C47.0792 53.71 46.9212 53.791 46.7512 53.791Z" fill="white"/>
<defs>
<linearGradient id="paint0_linear_2082_817" x1="10.4752" y1="58.4471" x2="58.3696" y2="10.5528" gradientUnits="userSpaceOnUse">
<stop stop-color="#88B73C"/>
<stop offset="0.0688" stop-color="#83B437"/>
<stop offset="0.4194" stop-color="#6FA722"/>
<stop offset="0.7398" stop-color="#639F13"/>
<stop offset="1" stop-color="#5F9D0D"/>
</linearGradient>
</defs>
</svg>
