<svg width="67" height="67" viewBox="0 0 67 67" fill="none" xmlns="http://www.w3.org/2000/svg">
<path d="M33.3888 66.5031C51.6164 66.5031 66.3928 51.7267 66.3928 33.4991C66.3928 15.2715 51.6164 0.495117 33.3888 0.495117C15.1612 0.495117 0.384766 15.2715 0.384766 33.4991C0.384766 51.7267 15.1612 66.5031 33.3888 66.5031Z" fill="url(#paint0_linear_2082_736)"/>
<path d="M47.5755 42.1751H28.1645C27.7825 42.1751 27.4715 41.8651 27.4715 41.4871C27.4715 41.1041 27.7835 40.7941 28.1645 40.7941H47.5755C48.0235 40.7941 48.3875 40.4311 48.3875 39.9821V19.8951C48.3875 19.4501 48.0245 19.0851 47.5755 19.0851H23.9215C23.4745 19.0851 23.1105 19.4501 23.1105 19.8951V26.8431C23.1105 27.2261 22.8005 27.5331 22.4175 27.5331C22.0385 27.5331 21.7295 27.2261 21.7295 26.8431V19.8951C21.7295 18.6881 22.7115 17.7051 23.9205 17.7051H47.5745C48.7845 17.7051 49.7695 18.6881 49.7695 19.8951V39.9821C49.7705 41.1911 48.7855 42.1751 47.5755 42.1751Z" fill="white"/>
<path d="M35.7476 39.171C30.6576 39.171 26.5156 35.03 26.5156 29.939C26.5156 24.849 30.6586 20.707 35.7476 20.707C40.8386 20.707 44.9796 24.85 44.9796 29.939C44.9796 35.03 40.8386 39.171 35.7476 39.171ZM35.7476 22.088C31.4196 22.088 27.8986 25.61 27.8986 29.939C27.8986 34.269 31.4196 37.791 35.7476 37.791C40.0786 37.791 43.5996 34.269 43.5996 29.939C43.5996 25.61 40.0786 22.088 35.7476 22.088Z" fill="white"/>
<path d="M32.2393 32.1905C30.9973 32.1905 29.9883 31.1815 29.9883 29.9395C29.9883 28.6985 30.9973 27.6895 32.2393 27.6895C33.4793 27.6895 34.4893 28.6985 34.4893 29.9395C34.4893 31.1815 33.4803 32.1905 32.2393 32.1905ZM32.2393 29.0695C31.7593 29.0695 31.3683 29.4605 31.3683 29.9395C31.3683 30.4195 31.7593 30.8105 32.2393 30.8105C32.7183 30.8105 33.1093 30.4195 33.1093 29.9395C33.1093 29.4595 32.7183 29.0695 32.2393 29.0695Z" fill="white"/>
<path d="M39.2608 32.1905C38.0188 32.1905 37.0068 31.1815 37.0068 29.9395C37.0068 28.6985 38.0188 27.6895 39.2608 27.6895C40.5018 27.6895 41.5108 28.6985 41.5108 29.9395C41.5108 31.1815 40.5018 32.1905 39.2608 32.1905ZM39.2608 29.0695C38.7808 29.0695 38.3898 29.4605 38.3898 29.9395C38.3898 30.4195 38.7808 30.8105 39.2608 30.8105C39.7398 30.8105 40.1308 30.4195 40.1308 29.9395C40.1308 29.4595 39.7398 29.0695 39.2608 29.0695Z" fill="white"/>
<path d="M21.52 44.504H17.838C15.08 44.504 12.835 42.259 12.835 39.501V34.439C12.835 34.061 13.145 33.749 13.527 33.749H25.835C26.213 33.749 26.522 34.061 26.522 34.439V39.501C26.522 42.259 24.277 44.504 21.52 44.504ZM14.216 35.132V39.501C14.216 41.497 15.841 43.122 17.838 43.122H21.52C23.516 43.122 25.141 41.497 25.141 39.501V35.132H14.216Z" fill="white"/>
<path d="M17.4374 34.8541C17.0554 34.8541 16.7444 34.5471 16.7444 34.1641V30.3791C16.7444 30.0791 16.5024 29.8351 16.2004 29.8351C15.9014 29.8351 15.6564 30.0801 15.6564 30.3791V34.1641C15.6564 34.5471 15.3494 34.8541 14.9664 34.8541C14.5854 34.8541 14.2764 34.5471 14.2764 34.1641V30.3791C14.2764 29.3171 15.1394 28.4541 16.2004 28.4541C17.2624 28.4541 18.1254 29.3171 18.1254 30.3791V34.1641C18.1244 34.5461 17.8164 34.8541 17.4374 34.8541Z" fill="white"/>
<path d="M24.3934 34.8541C24.0104 34.8541 23.7004 34.5471 23.7004 34.1641V30.3791C23.7004 30.0791 23.4584 29.8351 23.1564 29.8351C22.8604 29.8351 22.6124 30.0801 22.6124 30.3791V34.1641C22.6124 34.5471 22.3034 34.8541 21.9254 34.8541C21.5394 34.8541 21.2324 34.5471 21.2324 34.1641V30.3791C21.2324 29.3171 22.0964 28.4541 23.1574 28.4541C24.2214 28.4541 25.0854 29.3171 25.0854 30.3791V34.1641C25.0844 34.5461 24.7724 34.8541 24.3934 34.8541Z" fill="white"/>
<path d="M26.6687 54.1915C22.3087 54.1915 18.7617 50.6455 18.7617 46.2835V43.8785C18.7617 43.4965 19.0687 43.1885 19.4487 43.1885C19.8337 43.1885 20.1417 43.4975 20.1417 43.8785V46.2835C20.1417 49.8835 23.0667 52.8115 26.6677 52.8115C30.2647 52.8115 33.1957 49.8835 33.1957 46.2835C33.1957 45.9025 33.5027 45.5935 33.8837 45.5935C34.2677 45.5935 34.5767 45.9025 34.5767 46.2835C34.5767 50.6455 31.0307 54.1915 26.6687 54.1915Z" fill="white"/>
<defs>
<linearGradient id="paint0_linear_2082_736" x1="10.0511" y1="56.8375" x2="56.7266" y2="10.162" gradientUnits="userSpaceOnUse">
<stop stop-color="#88B73C"/>
<stop offset="0.0688" stop-color="#83B437"/>
<stop offset="0.4194" stop-color="#6FA722"/>
<stop offset="0.7398" stop-color="#639F13"/>
<stop offset="1" stop-color="#5F9D0D"/>
</linearGradient>
</defs>
</svg>
