<svg width="69" height="69" viewBox="0 0 69 69" fill="none" xmlns="http://www.w3.org/2000/svg">
<path d="M68.1402 34.4988C68.1402 53.2028 52.9772 68.3668 34.2752 68.3668C15.5692 68.3668 0.410156 53.2018 0.410156 34.4988C0.410156 15.7948 15.5692 0.631836 34.2752 0.631836C52.9772 0.631836 68.1402 15.7948 68.1402 34.4988Z" fill="url(#paint0_linear_2082_839)"/>
<path d="M15.1058 32.1842H8.00873C7.68373 32.1842 7.42578 31.9242 7.42578 31.6002V29.6162C7.42578 29.2942 7.68373 29.0332 8.00873 29.0332H15.8898C16.0848 29.0332 16.2648 29.1292 16.3738 29.2882C16.4828 29.4492 16.5038 29.6502 16.4348 29.8322L15.6467 31.8162C15.5597 32.0392 15.3438 32.1842 15.1058 32.1842ZM8.59375 31.0162H14.7078L15.0298 30.1982H8.59277L8.59375 31.0162Z" fill="white"/>
<path d="M7.29321 34.1914C6.57521 34.1914 5.99121 33.6044 5.99121 32.8834V29.4974C5.99121 28.7774 6.57521 28.1904 7.29321 28.1904C8.01021 28.1904 8.59418 28.7774 8.59418 29.4974V32.8834C8.59418 33.6044 8.01021 34.1914 7.29321 34.1914ZM7.29321 29.3594C7.22321 29.3594 7.15918 29.4234 7.15918 29.4974V32.8834C7.15918 33.0324 7.42719 33.0324 7.42719 32.8834V29.4974C7.42719 29.4234 7.36221 29.3594 7.29321 29.3594Z" fill="white"/>
<path d="M24.119 48.3358C23.636 48.3358 23.0999 48.0738 22.6859 47.6028C21.0319 45.6688 19.789 43.6629 18.885 41.4629C18.764 41.1649 18.9059 40.8238 19.2039 40.7008C19.5019 40.5808 19.843 40.7208 19.968 41.0198C20.822 43.1028 21.9989 45.0039 23.5679 46.8379C23.7509 47.0459 23.939 47.1309 24.051 47.1569C24.042 47.0889 24.021 46.9869 23.966 46.8419C22.996 44.2419 22.0689 41.4618 21.828 38.6988C21.798 38.3778 22.0379 38.0948 22.3569 38.0668C22.6789 38.0378 22.961 38.2778 22.989 38.5988C23.218 41.2228 24.1179 43.9118 25.0599 46.4298C25.4999 47.5898 24.905 48.0608 24.71 48.1768C24.535 48.2828 24.332 48.3358 24.119 48.3358Z" fill="white"/>
<path d="M49.4775 26.9072H26.2695C25.9475 26.9072 25.6885 26.6472 25.6885 26.3232C25.6885 26.0012 25.9475 25.7412 26.2695 25.7412H49.4775C49.7995 25.7412 50.0615 26.0012 50.0615 26.3232C50.0615 26.6472 49.7995 26.9072 49.4775 26.9072Z" fill="white"/>
<path d="M10.7736 50.3138C10.4396 50.3138 10.1236 50.2378 9.84357 50.1018C8.75457 49.5698 7.98953 47.9738 8.87653 45.7198C10.0315 42.8128 11.1816 39.9069 12.3306 37.0009C13.4826 34.0949 14.6325 31.1859 15.7875 28.2789C16.7665 26.0639 17.9246 24.9728 19.3356 24.9238L24.5345 24.9229C24.8565 24.9229 25.1185 25.1838 25.1185 25.5058V30.8759C25.1185 31.3779 25.5116 31.7868 25.9916 31.7868H49.7316C50.2176 31.7868 50.6276 31.3699 50.6276 30.8759V25.5058C50.6276 25.1838 50.8866 24.9229 51.2086 24.9229H52.4346C53.5986 24.9229 54.5436 25.8748 54.5436 27.0468V35.1028C54.5436 36.2748 53.5986 37.2268 52.4346 37.2268H23.3425C20.9515 37.6968 17.5955 41.5038 13.3635 48.5468C12.6135 49.8098 11.6356 50.3138 10.7736 50.3138ZM19.3605 26.0889C18.4575 26.1239 17.6336 26.9868 16.8646 28.7298C15.7186 31.6168 14.5686 34.5248 13.4166 37.4308C12.2676 40.3378 11.1175 43.2438 9.96253 46.1508C9.34853 47.7118 9.73453 48.7489 10.3555 49.0529C10.8755 49.3099 11.6966 49.0648 12.3626 47.9478C16.8686 40.4478 20.4105 36.5639 23.1865 36.0699C23.2195 36.0639 23.2555 36.0609 23.2905 36.0609H52.4365C52.9475 36.0609 53.3785 35.6228 53.3785 35.1028V27.0468C53.3785 26.5288 52.9465 26.0889 52.4365 26.0889H51.7946V30.8759C51.7946 32.0219 50.8695 32.9538 49.7325 32.9538H25.9926C24.8706 32.9538 23.9515 32.0219 23.9515 30.8759L23.9125 26.0889H19.3605Z" fill="white"/>
<path d="M55.6942 33.9349C55.4122 33.9349 55.1622 33.7279 55.1202 33.4389C55.0712 33.1199 55.2872 32.8229 55.6092 32.7729C57.9172 32.4229 59.6012 32.1679 60.8692 31.9579C61.4532 31.8769 61.9612 31.7979 62.4172 31.7299C62.6852 31.6889 62.9342 31.6489 63.1622 31.6159C63.1742 31.5739 63.1782 31.5369 63.1782 31.5059V30.6179C63.1782 30.5919 63.1742 30.5619 63.1682 30.5329C62.9382 30.4979 62.6852 30.4599 62.4172 30.4189C61.9612 30.3489 61.4532 30.2719 60.8852 30.1919C59.6022 29.9789 57.9172 29.7239 55.6102 29.3739C55.2882 29.3259 55.0722 29.0289 55.1212 28.7079C55.1672 28.3899 55.4712 28.1769 55.7842 28.2179C58.0972 28.5689 59.7882 28.8259 61.0622 29.0369C61.6182 29.1149 62.1352 29.1939 62.5942 29.2639C62.9492 29.3199 63.2722 29.3689 63.5642 29.4089C63.6002 29.4129 63.6342 29.4209 63.6702 29.4329C63.9132 29.5149 64.1052 29.7089 64.2112 29.9819C64.2752 30.1419 64.3452 30.3559 64.3452 30.6169V31.5049C64.3452 31.7699 64.2762 32.0099 64.2112 32.1619C64.1052 32.4339 63.9132 32.6289 63.6762 32.7089C63.6402 32.7229 63.6032 32.7319 63.5642 32.7359C63.2722 32.7769 62.9502 32.8259 62.5942 32.8819C62.1352 32.9519 61.6172 33.0309 61.0462 33.1099C59.7872 33.3169 58.0972 33.5749 55.7832 33.9259C55.7562 33.9319 55.7252 33.9349 55.6942 33.9349Z" fill="white"/>
<path d="M19.6368 37.3654C18.6008 37.3654 17.7578 36.5294 17.7578 35.4984C17.7578 34.4564 18.6008 33.6074 19.6368 33.6074C20.6578 33.6074 21.4918 34.4564 21.4918 35.4984C21.4918 36.5294 20.6578 37.3654 19.6368 37.3654ZM19.6368 34.7734C19.2448 34.7734 18.9258 35.1004 18.9258 35.4984C18.9258 35.8844 19.2448 36.1984 19.6368 36.1984C20.0078 36.1984 20.3248 35.8774 20.3248 35.4984C20.3238 35.1004 20.0138 34.7734 19.6368 34.7734Z" fill="white"/>
<defs>
<linearGradient id="paint0_linear_2082_839" x1="10.3273" y1="58.4466" x2="58.2217" y2="10.5522" gradientUnits="userSpaceOnUse">
<stop stop-color="#88B73C"/>
<stop offset="0.0688" stop-color="#83B437"/>
<stop offset="0.4194" stop-color="#6FA722"/>
<stop offset="0.7398" stop-color="#639F13"/>
<stop offset="1" stop-color="#5F9D0D"/>
</linearGradient>
</defs>
</svg>
