<svg width="67" height="67" viewBox="0 0 67 67" fill="none" xmlns="http://www.w3.org/2000/svg">
<path d="M33.5362 66.5041C51.7644 66.5041 66.5412 51.7273 66.5412 33.4991C66.5412 15.271 51.7644 0.494141 33.5362 0.494141C15.3081 0.494141 0.53125 15.271 0.53125 33.4991C0.53125 51.7273 15.3081 66.5041 33.5362 66.5041Z" fill="url(#paint0_linear_2082_758)"/>
<path d="M30.1427 47.1082C29.8437 47.1082 29.5937 46.8752 29.5777 46.5732C29.5547 46.2132 29.0947 37.7052 29.0947 36.7872C29.0947 33.7132 30.1287 32.1582 32.1667 32.1582C33.4107 32.1582 34.4247 32.7602 35.0267 33.8622C35.8047 35.2892 35.7947 37.4532 35.0027 38.6812C34.6207 39.2722 34.0877 39.5752 33.4997 39.5312C33.1867 39.5102 32.9557 39.2392 32.9767 38.9262C32.9987 38.6102 33.2687 38.3772 33.5817 38.4022C33.7417 38.4122 33.8977 38.3002 34.0487 38.0662C34.5547 37.2802 34.6537 35.5502 34.0297 34.4032C33.6257 33.6662 32.9987 33.2872 32.1677 33.2872C30.8267 33.2872 30.2297 34.3682 30.2297 36.7872C30.2297 37.6752 30.7057 46.4242 30.7117 46.5122C30.7287 46.8252 30.4877 47.0932 30.1747 47.1082C30.1657 47.1082 30.1547 47.1082 30.1427 47.1082Z" fill="white"/>
<path d="M36.9302 47.1082C36.9182 47.1082 36.9072 47.1082 36.8962 47.1082C36.5832 47.0932 36.3462 46.8252 36.3632 46.5122C36.3692 46.4242 36.8422 37.6752 36.8422 36.7872C36.8422 34.3692 36.2462 33.2872 34.9072 33.2872C34.0742 33.2872 33.4462 33.6652 33.0422 34.4032C32.4212 35.5492 32.5212 37.2792 33.0262 38.0662C33.1732 38.3002 33.3332 38.4122 33.4902 38.4022C33.8052 38.3782 34.0752 38.6102 34.0982 38.9262C34.1202 39.2392 33.8872 39.5092 33.5752 39.5312C32.9842 39.5752 32.4552 39.2732 32.0692 38.6812C31.2782 37.4522 31.2662 35.2892 32.0482 33.8622C32.6472 32.7602 33.6642 32.1582 34.9082 32.1582C36.9452 32.1582 37.9822 33.7132 37.9822 36.7872C37.9822 37.7052 37.5172 46.2132 37.4972 46.5732C37.4802 46.8752 37.2262 47.1082 36.9302 47.1082Z" fill="white"/>
<path d="M38.1407 47.2243H28.9287C28.3737 47.2243 27.9057 46.8073 27.8477 46.2483C27.7187 45.0253 26.7627 43.8973 25.6567 42.5923C23.8097 40.4123 21.5107 37.7013 21.5107 32.9303C21.5107 26.2993 26.9047 20.9033 33.5357 20.9033C40.1667 20.9033 45.5587 26.2993 45.5587 32.9303C45.5587 37.7013 43.2637 40.4113 41.4127 42.5923C40.3057 43.8983 39.3527 45.0263 39.2207 46.2483C39.1647 46.8073 38.6987 47.2243 38.1407 47.2243ZM29.1697 45.8603H37.9017C38.1537 44.3323 39.2347 43.0563 40.3737 41.7143C42.1657 39.5983 44.1987 37.1993 44.1987 32.9303C44.1987 27.0483 39.4137 22.2643 33.5357 22.2643C27.6557 22.2643 22.8707 27.0483 22.8707 32.9303C22.8707 37.1993 24.9017 39.5983 26.6947 41.7143C27.8337 43.0573 28.9177 44.3323 29.1697 45.8603Z" fill="white"/>
<path d="M32.7578 25.749C32.4238 25.749 32.1288 25.498 32.0848 25.158C32.0368 24.787 32.2948 24.444 32.6688 24.393C32.9758 24.352 33.2888 24.332 33.5978 24.332C33.9748 24.332 34.2788 24.638 34.2788 25.012C34.2788 25.389 33.9748 25.692 33.5978 25.692C33.3498 25.692 33.0978 25.712 32.8498 25.744C32.8188 25.746 32.7888 25.749 32.7578 25.749Z" fill="white"/>
<path d="M25.8714 32.2574C25.4974 32.2574 25.1924 31.9514 25.1924 31.5744C25.1924 28.5284 27.1414 25.8614 30.0454 24.9464C30.4024 24.8344 30.7884 25.0314 30.9014 25.3914C31.0134 25.7484 30.8164 26.1294 30.4574 26.2434C28.1204 26.9834 26.5534 29.1254 26.5534 31.5754C26.5524 31.9514 26.2504 32.2574 25.8714 32.2574Z" fill="white"/>
<path d="M38.1001 49.6032H28.9701C28.5931 49.6032 28.2891 49.2973 28.2891 48.9203C28.2891 48.5433 28.5931 48.2393 28.9701 48.2393H38.1001C38.4801 48.2393 38.7831 48.5433 38.7831 48.9203C38.7831 49.2973 38.4801 49.6032 38.1001 49.6032Z" fill="white"/>
<path d="M37.8479 51.9802H29.2249C28.8469 51.9802 28.5439 51.6752 28.5439 51.2992C28.5439 50.9222 28.8469 50.6162 29.2249 50.6162H37.8479C38.2249 50.6162 38.5289 50.9212 38.5289 51.2992C38.5289 51.6752 38.2249 51.9802 37.8479 51.9802Z" fill="white"/>
<path d="M37.6502 54.3571H29.4222C29.0462 54.3571 28.7412 54.0512 28.7412 53.6772C28.7412 53.2972 29.0462 52.9932 29.4222 52.9932H37.6502C38.0242 52.9932 38.3312 53.2972 38.3312 53.6772C38.3322 54.0512 38.0242 54.3571 37.6502 54.3571Z" fill="white"/>
<path d="M35.2301 56.7341H31.8431C31.4691 56.7341 31.1621 56.4281 31.1621 56.0551C31.1621 55.6761 31.4691 55.3711 31.8431 55.3711H35.2301C35.6041 55.3711 35.9101 55.6761 35.9101 56.0551C35.9101 56.4291 35.6041 56.7341 35.2301 56.7341Z" fill="white"/>
<path d="M33.5365 16.0745C33.1595 16.0745 32.8555 15.7685 32.8555 15.3945V10.9495C32.8555 10.5755 33.1595 10.2705 33.5365 10.2705C33.9105 10.2705 34.2195 10.5755 34.2195 10.9495V15.3945C34.2185 15.7685 33.9095 16.0745 33.5365 16.0745Z" fill="white"/>
<path d="M21.1365 21.2091C20.9635 21.2091 20.7895 21.1441 20.6575 21.0121L17.5115 17.8691C17.2475 17.6041 17.2475 17.1731 17.5115 16.9071C17.7815 16.6391 18.2095 16.6391 18.4735 16.9071L21.6165 20.0501C21.8845 20.3131 21.8845 20.7451 21.6165 21.0121C21.4845 21.1441 21.3115 21.2091 21.1365 21.2091Z" fill="white"/>
<path d="M49.0762 49.1481C48.9002 49.1481 48.7292 49.0801 48.5942 48.9471L45.4512 45.8041C45.1882 45.5411 45.1882 45.1101 45.4512 44.8421C45.7192 44.5761 46.1502 44.5761 46.4132 44.8421L49.5562 47.9841C49.8242 48.2491 49.8242 48.6801 49.5562 48.9461C49.4222 49.0801 49.2492 49.1481 49.0762 49.1481Z" fill="white"/>
<path d="M15.9999 33.6071H11.5579C11.1839 33.6071 10.8779 33.3011 10.8779 32.9271C10.8779 32.5531 11.1839 32.2471 11.5579 32.2471H15.9999C16.3799 32.2471 16.6829 32.5531 16.6829 32.9271C16.6829 33.3011 16.3799 33.6071 15.9999 33.6071Z" fill="white"/>
<path d="M55.5126 33.6071H51.0686C50.6916 33.6071 50.3896 33.3011 50.3896 32.9271C50.3896 32.5531 50.6916 32.2471 51.0686 32.2471H55.5126C55.8896 32.2471 56.1906 32.5531 56.1906 32.9271C56.1906 33.3011 55.8896 33.6071 55.5126 33.6071Z" fill="white"/>
<path d="M17.9955 49.1481C17.8195 49.1481 17.6455 49.0801 17.5125 48.9471C17.2485 48.6811 17.2485 48.2491 17.5125 47.9851L20.6584 44.8431C20.9214 44.5771 21.3514 44.5771 21.6174 44.8431C21.8854 45.1111 21.8854 45.5421 21.6174 45.8051L18.4745 48.9481C18.3425 49.0801 18.1725 49.1481 17.9955 49.1481Z" fill="white"/>
<path d="M45.9332 21.2091C45.7602 21.2091 45.5832 21.1441 45.4512 21.0121C45.1882 20.7441 45.1882 20.3121 45.4512 20.0501L48.5942 16.9071C48.8622 16.6391 49.2902 16.6391 49.5562 16.9071C49.8242 17.1731 49.8242 17.6051 49.5562 17.8691L46.4132 21.0121C46.2812 21.1441 46.1062 21.2091 45.9332 21.2091Z" fill="white"/>
<defs>
<linearGradient id="paint0_linear_2082_758" x1="10.1989" y1="56.8395" x2="56.8756" y2="10.1629" gradientUnits="userSpaceOnUse">
<stop stop-color="#88B73C"/>
<stop offset="0.0688" stop-color="#83B437"/>
<stop offset="0.4194" stop-color="#6FA722"/>
<stop offset="0.7398" stop-color="#639F13"/>
<stop offset="1" stop-color="#5F9D0D"/>
</linearGradient>
</defs>
</svg>
