<svg width="67" height="67" viewBox="0 0 67 67" fill="none" xmlns="http://www.w3.org/2000/svg">
<path d="M66.2453 33.4991C66.2453 51.7271 51.4663 66.5051 33.2423 66.5051C15.0153 66.5051 0.237305 51.7261 0.237305 33.4991C0.237305 15.2701 15.0153 0.494141 33.2423 0.494141C51.4663 0.494141 66.2453 15.2701 66.2453 33.4991Z" fill="url(#paint0_linear_2082_701)"/>
<path d="M39.9146 47.0439C39.3736 47.0439 38.9355 47.48 38.9355 48.02C38.9355 48.564 39.3736 48.9999 39.9146 48.9999C40.4546 48.9999 40.8935 48.563 40.8935 48.02C40.8935 47.48 40.4546 47.0439 39.9146 47.0439Z" fill="white"/>
<path d="M21.6772 44.2969C21.1372 44.2969 20.7012 44.7319 20.7012 45.2759C20.7012 45.8139 21.1372 46.2549 21.6772 46.2549C22.2182 46.2549 22.6592 45.8139 22.6592 45.2759C22.6592 44.7309 22.2182 44.2969 21.6772 44.2969Z" fill="white"/>
<path d="M24.6137 44.7178C24.0757 44.7178 23.6377 45.1548 23.6377 45.6938C23.6377 46.2348 24.0757 46.6728 24.6137 46.6728C25.1557 46.6728 25.5957 46.2348 25.5957 45.6938C25.5957 45.1538 25.1557 44.7178 24.6137 44.7178Z" fill="white"/>
<path d="M23.6372 49.9795C24.1785 49.9795 24.6172 49.5408 24.6172 48.9995C24.6172 48.4583 24.1785 48.0195 23.6372 48.0195C23.096 48.0195 22.6572 48.4583 22.6572 48.9995C22.6572 49.5408 23.096 49.9795 23.6372 49.9795Z" fill="white"/>
<path d="M29.1753 51.9375C29.716 51.9375 30.1543 51.4992 30.1543 50.9585C30.1543 50.4178 29.716 49.9795 29.1753 49.9795C28.6346 49.9795 28.1963 50.4178 28.1963 50.9585C28.1963 51.4992 28.6346 51.9375 29.1753 51.9375Z" fill="white"/>
<path d="M26.7447 49.9795C27.2859 49.9795 27.7246 49.5408 27.7246 48.9995C27.7246 48.4583 27.2859 48.0195 26.7447 48.0195C26.2034 48.0195 25.7646 48.4583 25.7646 48.9995C25.7646 49.5408 26.2034 49.9795 26.7447 49.9795Z" fill="white"/>
<path d="M32.1108 50.959C32.6515 50.959 33.0898 50.5207 33.0898 49.98C33.0898 49.4393 32.6515 49.001 32.1108 49.001C31.5702 49.001 31.1318 49.4393 31.1318 49.98C31.1318 50.5207 31.5702 50.959 32.1108 50.959Z" fill="white"/>
<path d="M26.7446 52.917C27.2853 52.917 27.7236 52.4787 27.7236 51.938C27.7236 51.3973 27.2853 50.959 26.7446 50.959C26.2039 50.959 25.7656 51.3973 25.7656 51.938C25.7656 52.4787 26.2039 52.917 26.7446 52.917Z" fill="white"/>
<path d="M31.1313 51.9375C30.5933 51.9375 30.1533 52.3745 30.1533 52.9165C30.1533 53.4545 30.5923 53.8945 31.1313 53.8945C31.6743 53.8945 32.1103 53.4555 32.1103 52.9165C32.1103 52.3735 31.6743 51.9375 31.1313 51.9375Z" fill="white"/>
<path d="M38.2451 47.4282C38.2451 46.8862 37.8031 46.4492 37.2651 46.4492C36.7251 46.4492 36.2861 46.8872 36.2861 47.4282C36.2861 47.9662 36.7251 48.4042 37.2651 48.4042C37.8021 48.4032 38.2451 47.9662 38.2451 47.4282Z" fill="white"/>
<path d="M34.6401 52.917C35.1808 52.917 35.6191 52.4787 35.6191 51.938C35.6191 51.3973 35.1808 50.959 34.6401 50.959C34.0994 50.959 33.6611 51.3973 33.6611 51.938C33.6611 52.4787 34.0994 52.917 34.6401 52.917Z" fill="white"/>
<path d="M35.1118 50.167C35.6525 50.167 36.0908 49.7287 36.0908 49.188C36.0908 48.6473 35.6525 48.209 35.1118 48.209C34.5711 48.209 34.1328 48.6473 34.1328 49.188C34.1328 49.7287 34.5711 50.167 35.1118 50.167Z" fill="white"/>
<path d="M37.854 49.3936C37.314 49.3936 36.875 49.8286 36.875 50.3726C36.875 50.9116 37.314 51.3485 37.854 51.3485C38.396 51.3485 38.832 50.9106 38.832 50.3726C38.831 49.8286 38.395 49.3936 37.854 49.3936Z" fill="white"/>
<path d="M56.7506 31.8466H48.2776C45.6556 31.8466 43.3966 33.7046 42.8506 36.2316H36.7486C37.3416 30.3476 42.3066 25.8146 48.2776 25.8146H56.7506C57.0226 25.8146 57.2386 25.5946 57.2386 25.3246C57.2386 25.0526 57.0226 24.8326 56.7506 24.8326H48.2776C41.7676 24.8326 36.3616 29.8036 35.7656 36.2316C34.8716 36.2536 34.1516 36.9916 34.1516 37.8906V38.9546C34.1516 39.8346 34.8386 40.5576 35.7086 40.6106V42.9546C35.7086 45.4796 33.6576 47.5306 31.1326 47.5306C28.6096 47.5306 26.5586 45.4796 26.5586 42.9546V30.4846C27.4726 30.4786 28.2146 29.7396 28.2146 28.8226V27.7596C28.2146 26.8456 27.4726 26.1006 26.5586 26.0976V11.9626C26.5586 11.6906 26.3376 11.4746 26.0656 11.4746C25.7966 11.4746 25.5796 11.6906 25.5796 11.9626V21.0646C24.2276 21.0176 23.4906 20.7726 22.7156 20.5116C21.9006 20.2396 21.0596 19.9566 19.5426 19.9066V11.9636C19.5426 11.6916 19.3256 11.4756 19.0536 11.4756C18.7826 11.4756 18.5636 11.6916 18.5636 11.9636V26.1156C17.7446 26.2086 17.1016 26.9106 17.1016 27.7606V28.8236C17.1016 29.6736 17.7446 30.3726 18.5636 30.4706V42.9546C18.5636 49.8876 24.2056 55.5256 31.1326 55.5256C38.0656 55.5256 43.7036 49.8866 43.7036 42.9546V40.6106C44.5706 40.5576 45.2606 39.8356 45.2606 38.9546V37.8906C45.2606 37.0636 44.6496 36.3746 43.8526 36.2516C44.3696 34.2666 46.1816 32.8266 48.2776 32.8266H56.7506C57.0226 32.8266 57.2386 32.6096 57.2386 32.3406C57.2376 32.0656 57.0216 31.8466 56.7506 31.8466ZM22.4026 21.4386C23.2206 21.7126 24.0616 21.9926 25.5786 22.0426V26.0976H19.5416V20.8876C20.8946 20.9346 21.6306 21.1806 22.4026 21.4386ZM18.0806 28.8216V27.7586C18.0806 27.3816 18.3866 27.0786 18.7606 27.0786H26.5536C26.9286 27.0786 27.2346 27.3816 27.2346 27.7586V28.8216C27.2346 29.1956 26.9296 29.5036 26.5536 29.5036H26.0746C26.0716 29.5036 26.0686 29.5036 26.0656 29.5036H19.0576C19.0576 29.5036 19.0566 29.5036 19.0536 29.5036C19.0536 29.5036 19.0506 29.5036 19.0476 29.5036H18.7606C18.3866 29.5036 18.0806 29.1956 18.0806 28.8216ZM31.1316 54.5456C24.7436 54.5456 19.5416 49.3436 19.5416 42.9536V30.4836H25.5786V42.9536C25.5786 46.0196 28.0706 48.5086 31.1316 48.5086C34.1946 48.5086 36.6866 46.0196 36.6866 42.9536V40.6116H42.7226V42.9536C42.7226 49.3436 37.5226 54.5456 31.1316 54.5456ZM44.2806 37.8906V38.9546C44.2806 39.3286 43.9776 39.6346 43.6036 39.6346H43.2196L43.2136 39.6316C43.2096 39.6316 43.2096 39.6346 43.2066 39.6346H36.2056C36.2046 39.6346 36.2046 39.6316 36.1986 39.6316L36.1926 39.6346H35.8076C35.4336 39.6346 35.1316 39.3286 35.1316 38.9546V37.8906C35.1316 37.5166 35.4336 37.2106 35.8076 37.2106H43.6046C43.9786 37.2106 44.2806 37.5166 44.2806 37.8906Z" fill="white"/>
<defs>
<linearGradient id="paint0_linear_2082_701" x1="9.9046" y1="56.838" x2="56.5796" y2="10.163" gradientUnits="userSpaceOnUse">
<stop stop-color="#88B73C"/>
<stop offset="0.0688" stop-color="#83B437"/>
<stop offset="0.4194" stop-color="#6FA722"/>
<stop offset="0.7398" stop-color="#639F13"/>
<stop offset="1" stop-color="#5F9D0D"/>
</linearGradient>
</defs>
</svg>
