<svg width="67" height="67" viewBox="0 0 67 67" fill="none" xmlns="http://www.w3.org/2000/svg">
<path d="M66.8371 33.4991C66.8371 51.7251 52.0571 66.5051 33.8311 66.5051C15.6031 66.5051 0.828125 51.7251 0.828125 33.4991C0.828125 15.2701 15.6031 0.494141 33.8311 0.494141C52.0571 0.494141 66.8371 15.2701 66.8371 33.4991Z" fill="url(#paint0_linear_2082_719)"/>
<path d="M53.7868 12.9277H13.8698C13.5328 12.9277 13.2568 13.1997 13.2568 13.5377V18.6237C13.2568 18.9647 13.5318 19.2397 13.8698 19.2397H15.2188V53.4597C15.2188 53.7957 15.4939 54.0687 15.8279 54.0687H51.8289C52.1689 54.0687 52.4428 53.7957 52.4428 53.4597V19.2397H53.7868C54.1268 19.2397 54.4038 18.9647 54.4038 18.6237V13.5377C54.4038 13.1997 54.1268 12.9277 53.7868 12.9277ZM19.4969 35.1268H48.1628V49.7897H19.4969V35.1268ZM16.4438 33.8997V31.9477H51.2209V33.9027L16.4438 33.8997ZM16.4438 27.5467V25.5967H51.2209V27.5467H16.4438ZM51.2209 28.7697V30.7247H16.4438V28.7697H51.2209ZM51.2209 24.3677H16.4438V22.4187H51.2209V24.3677ZM16.4438 52.8437V35.1268H18.2698V50.4028C18.2698 50.7398 18.5448 51.0188 18.8818 51.0188H48.7788C49.1128 51.0188 49.3868 50.7408 49.3868 50.4028V35.1268H51.2198V52.8437H16.4438ZM51.2209 21.1887H16.4438V19.2397H51.2209V21.1887ZM53.1758 18.0167H14.4848V14.1537H53.1758V18.0167Z" fill="white"/>
<path d="M33.7141 41.0271L30.2361 37.5511C29.9991 37.3111 29.6111 37.3111 29.3721 37.5511L25.8911 41.0271C25.6561 41.2661 25.6561 41.6531 25.8911 41.8921C26.0071 42.0081 26.1661 42.0751 26.3261 42.0751H27.8491V46.9351C27.8491 47.2711 28.1241 47.5461 28.4611 47.5461H31.1431C31.4831 47.5461 31.7591 47.2711 31.7591 46.9351V42.0781H33.2821C33.6161 42.0781 33.8921 41.8031 33.8951 41.4621C33.8951 41.3021 33.8301 41.1431 33.7141 41.0271ZM31.1441 40.8451C30.8081 40.8451 30.5331 41.1201 30.5331 41.4621V46.3221H29.0761V41.4621C29.0761 41.1201 28.8011 40.8451 28.4651 40.8451H28.4621H27.8091L29.8051 38.8551L31.8011 40.8451H31.1441Z" fill="white"/>
<path d="M41.3326 42.844H39.8116V37.984C39.8116 37.645 39.5356 37.376 39.1976 37.376H36.5156C36.1786 37.376 35.9016 37.645 35.9016 37.984V42.844H34.3806C34.0406 42.844 33.7646 43.119 33.7646 43.458C33.7646 43.619 33.8296 43.774 33.9456 43.89L37.4216 47.367C37.6646 47.607 38.0476 47.609 38.2906 47.37V47.367L41.7666 43.89C42.0066 43.653 42.0066 43.265 41.7666 43.024C41.6516 42.908 41.4966 42.844 41.3326 42.844ZM37.8566 46.07L35.8596 44.071H36.5156C36.8566 44.071 37.1296 43.802 37.1296 43.463V43.46V38.6H38.5856V43.458C38.5856 43.799 38.8566 44.068 39.1966 44.068H39.8506L37.8566 46.07Z" fill="white"/>
<defs>
<linearGradient id="paint0_linear_2082_719" x1="10.4947" y1="56.8375" x2="57.17" y2="10.1622" gradientUnits="userSpaceOnUse">
<stop stop-color="#88B73C"/>
<stop offset="0.0688" stop-color="#83B437"/>
<stop offset="0.4194" stop-color="#6FA722"/>
<stop offset="0.7398" stop-color="#639F13"/>
<stop offset="1" stop-color="#5F9D0D"/>
</linearGradient>
</defs>
</svg>
