<svg width="67" height="67" viewBox="0 0 67 67" fill="none" xmlns="http://www.w3.org/2000/svg">
<path d="M33.9796 66.5041C52.2078 66.5041 66.9846 51.7273 66.9846 33.4991C66.9846 15.271 52.2078 0.494141 33.9796 0.494141C15.7515 0.494141 0.974609 15.271 0.974609 33.4991C0.974609 51.7273 15.7515 66.5041 33.9796 66.5041Z" fill="url(#paint0_linear_2082_693)"/>
<path d="M60.0494 36.8278H48.0244V30.0918H60.0494C60.3654 30.0918 60.6204 29.8368 60.6204 29.5238C60.6204 29.2078 60.3654 28.9518 60.0494 28.9518H48.0244V28.6458C48.0244 27.8498 47.3775 27.1998 46.5775 27.1998H45.1144C44.3184 27.1998 43.6714 27.8488 43.6714 28.6458V28.9488H39.4174V23.4258H39.7214C40.5184 23.4258 41.1685 22.7768 41.1685 21.9788V20.5198C41.1685 19.7228 40.5184 19.0738 39.7214 19.0738H38.3964V16.7148H43.5134C44.7104 16.7148 45.6874 15.7388 45.6874 14.5408V12.9338C45.6874 11.7358 44.7104 10.7598 43.5134 10.7598H41.6134C40.4824 10.7598 39.3424 11.0118 38.3204 11.4938C37.2584 11.9938 36.0764 12.2568 34.9054 12.2568C33.7354 12.2568 32.5524 11.9938 31.4914 11.4948C30.4674 11.0118 29.3294 10.7588 28.1984 10.7588H26.3014C25.0974 10.7588 24.1214 11.7348 24.1214 12.9328V14.5398C24.1214 15.7378 25.0974 16.7138 26.3014 16.7138H31.4154V19.0728H30.0934C29.2934 19.0728 28.6494 19.7218 28.6494 20.5188V21.9778C28.6494 22.7758 29.2944 23.4248 30.0934 23.4248H30.3974V28.9478H26.1404V28.6448C26.1404 27.8488 25.4934 27.1988 24.6934 27.1988H23.2374C22.4404 27.1988 21.7904 27.8478 21.7904 28.6448V28.9508H9.75943C9.44643 28.9508 9.19043 29.2058 9.19043 29.5228C9.19043 29.8358 9.44643 30.0908 9.75943 30.0908H21.7904V36.8268H9.75943C9.44643 36.8268 9.19043 37.0838 9.19043 37.3998C9.19043 37.7158 9.44643 37.9718 9.75943 37.9718H21.7904V38.2738C21.7904 39.0708 22.4404 39.7198 23.2374 39.7198H24.6934C25.4934 39.7198 26.1404 39.0708 26.1404 38.2738V37.9718H43.6724V38.2738C43.6724 39.0708 44.3194 39.7198 45.1154 39.7198H46.5784C47.3784 39.7198 48.0255 39.0708 48.0255 38.2738V37.9718H60.0504C60.3664 37.9718 60.6214 37.7168 60.6214 37.3998C60.6214 37.0828 60.3654 36.8278 60.0494 36.8278ZM25.2664 14.5398V12.9328C25.2664 12.3648 25.7254 11.8988 26.2994 11.8988H28.1964C29.1634 11.8988 30.1304 12.1158 31.0034 12.5298C32.2164 13.0988 33.5654 13.4008 34.9034 13.4008C36.2444 13.4008 37.5914 13.0988 38.8074 12.5298C39.6774 12.1158 40.6475 11.8988 41.6115 11.8988H43.5114C44.0794 11.8988 44.5414 12.3638 44.5414 12.9328V14.5398C44.5414 15.1088 44.0794 15.5708 43.5114 15.5708H26.2984C25.7254 15.5698 25.2664 15.1078 25.2664 14.5398ZM32.5604 16.7138H37.2514V19.0728H32.5604V16.7138ZM29.7864 21.9788V20.5198C29.7864 20.3528 29.9204 20.2168 30.0914 20.2168H39.7204C39.8844 20.2168 40.0244 20.3518 40.0244 20.5198V21.9788C40.0244 22.1468 39.8844 22.2808 39.7204 22.2808H30.0914C29.9204 22.2808 29.7864 22.1468 29.7864 21.9788ZM38.2724 23.4258V29.5208C38.2724 29.5238 38.2724 29.5238 38.2724 29.5238V30.1498C36.2514 31.5528 33.5564 31.5528 31.5384 30.1498V23.4258H38.2724ZM24.9944 38.2748C24.9944 38.4418 24.8614 38.5788 24.6904 38.5788H23.2344C23.0634 38.5788 22.9294 38.4418 22.9294 38.2748V28.6458C22.9294 28.4788 23.0634 28.3438 23.2344 28.3438H24.6904C24.8614 28.3438 24.9944 28.4788 24.9944 28.6458V29.5098C24.9944 29.5158 24.9944 29.5178 24.9944 29.5178C24.9944 29.5268 24.9944 29.5298 24.9944 29.5298V38.2748ZM26.1384 36.8278V30.0918H30.3954V30.4388C30.3954 30.6188 30.4774 30.7858 30.6204 30.8938C31.8794 31.8608 33.3934 32.3458 34.9044 32.3458C36.4164 32.3458 37.9294 31.8608 39.1944 30.8938C39.3324 30.7858 39.4174 30.6188 39.4174 30.4388V30.0918H43.6714V36.8278H26.1384ZM46.8804 38.2748C46.8804 38.4418 46.7434 38.5788 46.5764 38.5788H45.1134C44.9494 38.5788 44.8124 38.4418 44.8124 38.2748V29.5288C44.8124 29.5258 44.8124 29.5228 44.8124 29.5198V29.5148V28.6448C44.8124 28.4778 44.9494 28.3428 45.1134 28.3428H46.5764C46.7434 28.3428 46.8804 28.4778 46.8804 28.6448V38.2748Z" fill="white"/>
<path d="M51.5291 46.0328C51.5291 44.3078 49.926 41.0818 49.86 40.9468C49.762 40.7518 49.5621 40.6318 49.3491 40.6318C49.1291 40.6318 48.929 40.7518 48.837 40.9468C48.765 41.0818 47.165 44.3078 47.165 46.0328C47.165 47.7248 48.561 48.2799 49.303 48.3379C49.315 48.3379 49.3331 48.3379 49.3491 48.3379C49.3611 48.3379 49.3761 48.3379 49.3911 48.3379C50.1311 48.2799 51.5291 47.7258 51.5291 46.0328ZM49.35 47.1918C49.091 47.1578 48.3101 46.9748 48.3101 46.0328C48.3101 45.1788 48.87 43.6768 49.35 42.5668C49.827 43.6768 50.386 45.1748 50.386 46.0328C50.386 46.9748 49.602 47.1578 49.35 47.1918Z" fill="white"/>
<path d="M53.0287 48.4541C52.8097 48.4541 52.6118 48.5771 52.5178 48.7701C52.4478 48.9071 50.8447 52.1301 50.8447 53.8561C50.8447 55.5501 52.2407 56.1021 52.9827 56.1591C53.0017 56.1591 53.0097 56.1621 53.0287 56.1621C53.0407 56.1621 53.0557 56.1591 53.0707 56.1591C53.8097 56.1011 55.2087 55.5501 55.2087 53.8561C55.2087 52.1291 53.6057 48.9061 53.5397 48.7701C53.4387 48.5771 53.2417 48.4541 53.0287 48.4541ZM53.0287 55.0171C52.7697 54.9801 51.9887 54.7971 51.9887 53.8571C51.9887 53.0021 52.5487 51.5011 53.0287 50.3901C53.5067 51.5011 54.0687 53.0021 54.0687 53.8571C54.0687 54.7961 53.2837 54.9801 53.0287 55.0171Z" fill="white"/>
<path d="M45.847 48.5332C45.628 48.5332 45.4301 48.6582 45.3361 48.8492C45.2661 48.9872 43.6631 52.2122 43.6631 53.9352C43.6631 55.6292 45.0621 56.1842 45.8011 56.2402C45.8201 56.2402 45.828 56.2422 45.847 56.2422C45.859 56.2422 45.874 56.2402 45.889 56.2402C46.631 56.1842 48.0301 55.6292 48.0301 53.9352C48.0301 52.2112 46.425 48.9872 46.358 48.8492C46.26 48.6572 46.06 48.5332 45.847 48.5332ZM45.847 55.0962C45.588 55.0612 44.8071 54.8772 44.8071 53.9362C44.8071 53.0832 45.369 51.5832 45.847 50.4702C46.325 51.5792 46.8871 53.0822 46.8871 53.9362C46.8871 54.8772 46.102 55.0612 45.847 55.0962Z" fill="white"/>
<defs>
<linearGradient id="paint0_linear_2082_693" x1="10.6422" y1="56.8385" x2="57.318" y2="10.1626" gradientUnits="userSpaceOnUse">
<stop stop-color="#88B73C"/>
<stop offset="0.0688" stop-color="#83B437"/>
<stop offset="0.4194" stop-color="#6FA722"/>
<stop offset="0.7398" stop-color="#639F13"/>
<stop offset="1" stop-color="#5F9D0D"/>
</linearGradient>
</defs>
</svg>
