<svg width="67" height="67" viewBox="0 0 67 67" fill="none" xmlns="http://www.w3.org/2000/svg">
<path d="M33.6847 66.5041C51.9128 66.5041 66.6897 51.7273 66.6897 33.4991C66.6897 15.271 51.9128 0.494141 33.6847 0.494141C15.4565 0.494141 0.679688 15.271 0.679688 33.4991C0.679688 51.7273 15.4565 66.5041 33.6847 66.5041Z" fill="url(#paint0_linear_2082_726)"/>
<path d="M50.0072 12.7402H17.2702C16.4232 12.7402 15.7393 13.4272 15.7393 14.2722V52.7262C15.7393 53.5732 16.4232 54.2572 17.2702 54.2572H50.0072C50.8492 54.2572 51.5363 53.5732 51.5363 52.7262V14.2722C51.5363 13.4272 50.8492 12.7402 50.0072 12.7402ZM50.3813 52.7262C50.3813 52.9342 50.2142 53.1002 50.0072 53.1002H17.2702C17.0622 53.1002 16.8903 52.9342 16.8903 52.7262V14.2722C16.8903 14.0632 17.0622 13.8982 17.2702 13.8982H50.0072C50.2142 13.8982 50.3813 14.0632 50.3813 14.2722V52.7262Z" fill="white"/>
<path d="M32.3412 36.4306C32.0232 36.4306 31.7652 36.6937 31.7652 37.0087V49.7486C31.7652 49.9526 31.6162 50.1257 31.4462 50.1257H20.9592C20.7892 50.1257 20.6462 49.9526 20.6462 49.7486V17.1267C20.6462 16.9197 20.7862 16.7496 20.9592 16.7496H31.4462C31.6162 16.7496 31.7652 16.9227 31.7652 17.1267V27.6487C31.7652 27.9677 32.0232 28.2267 32.3412 28.2267C32.6572 28.2267 32.9192 27.9687 32.9192 27.6487V17.1267C32.9192 16.2827 32.2562 15.5977 31.4462 15.5977H20.9592C20.1502 15.5977 19.4912 16.2837 19.4912 17.1267V49.7486C19.4912 50.5926 20.1512 51.2807 20.9592 51.2807H31.4462C32.2572 51.2807 32.9192 50.5926 32.9192 49.7486V37.0087C32.9192 36.6937 32.6582 36.4306 32.3412 36.4306Z" fill="white"/>
<path d="M46.3145 15.5967H35.8264C35.0144 15.5967 34.3555 16.2827 34.3555 17.1257V49.7477C34.3555 50.5917 35.0154 51.2797 35.8264 51.2797H46.3145C47.1235 51.2797 47.7834 50.5917 47.7834 49.7477V17.1257C47.7834 16.2827 47.1235 15.5967 46.3145 15.5967ZM46.6275 49.7487C46.6275 49.9527 46.4845 50.1257 46.3145 50.1257H35.8264C35.6564 50.1257 35.5135 49.9527 35.5135 49.7487V17.1267C35.5135 16.9197 35.6534 16.7497 35.8264 16.7497H46.3145C46.4845 16.7497 46.6275 16.9227 46.6275 17.1267V49.7487Z" fill="white"/>
<path d="M33.0623 30.7112C32.7633 30.2592 32.2593 29.9932 31.7153 29.9932C31.3963 29.9932 31.0863 30.0842 30.8203 30.2622L25.7373 33.6522C25.3743 33.8912 25.1323 34.2602 25.0473 34.6802C24.9623 35.1072 25.0503 35.5392 25.2873 35.8962L25.7203 36.5462C26.0233 36.9982 26.5233 37.2672 27.0693 37.2672C27.3863 37.2672 27.6983 37.1712 27.9653 36.9952L33.0483 33.6012C33.4083 33.3632 33.6503 32.9952 33.7383 32.5742C33.8213 32.1512 33.7353 31.7202 33.4973 31.3592L33.0623 30.7112ZM32.6063 32.3472C32.5893 32.4152 32.5453 32.5482 32.4083 32.6432L27.3253 36.0332C27.2503 36.0832 27.1623 36.1112 27.0703 36.1112C26.9133 36.1112 26.7703 36.0332 26.6843 35.9072L26.2513 35.2552C26.1603 35.1182 26.1673 34.9782 26.1813 34.9102C26.1963 34.8402 26.2393 34.7092 26.3773 34.6152L31.4643 31.2222C31.6723 31.0852 31.9683 31.1492 32.1043 31.3512L32.5363 32.0002C32.6293 32.1382 32.6173 32.2782 32.6063 32.3472Z" fill="white"/>
<path d="M43.7144 34.818C43.8244 34.709 43.8844 34.563 43.8844 34.411C43.8844 34.254 43.8234 34.111 43.7144 34.002C43.6034 33.89 43.4604 33.832 43.3074 33.832C43.1524 33.832 43.0044 33.89 42.8934 34.002L38.1514 38.747C38.0404 38.855 37.9824 39 37.9824 39.154C37.9824 39.307 38.0404 39.453 38.1514 39.561C38.3684 39.777 38.7474 39.777 38.9674 39.561L43.7144 34.818Z" fill="white"/>
<path d="M43.6986 37.9941C43.5436 37.9941 43.3956 38.0521 43.2876 38.1591L39.0626 42.3852C38.9516 42.4972 38.8906 42.6401 38.8906 42.7971C38.8906 42.9491 38.9516 43.0952 39.0626 43.2042C39.2786 43.4222 39.6616 43.4222 39.8786 43.2042L44.1036 38.9781C44.2146 38.8691 44.2736 38.7261 44.2736 38.5721C44.2736 38.4141 44.2146 38.2711 44.1036 38.1591C43.9946 38.0521 43.8526 37.9941 43.6986 37.9941Z" fill="white"/>
<defs>
<linearGradient id="paint0_linear_2082_726" x1="10.3469" y1="56.8375" x2="57.0228" y2="10.1616" gradientUnits="userSpaceOnUse">
<stop stop-color="#88B73C"/>
<stop offset="0.0688" stop-color="#83B437"/>
<stop offset="0.4194" stop-color="#6FA722"/>
<stop offset="0.7398" stop-color="#639F13"/>
<stop offset="1" stop-color="#5F9D0D"/>
</linearGradient>
</defs>
</svg>
